<?xml version="1.0" encoding="UTF-8" standalone="no"?>
<!DOCTYPE svg PUBLIC "-//W3C//DTD SVG 1.1//EN" "http://www.w3.org/Graphics/SVG/1.1/DTD/svg11.dtd">
<svg width="100%" height="100%" viewBox="0 0 6979 1948" version="1.1" xmlns="http://www.w3.org/2000/svg" xmlns:xlink="http://www.w3.org/1999/xlink" xml:space="preserve" xmlns:serif="http://www.serif.com/" style="fill-rule:evenodd;clip-rule:evenodd;stroke-linecap:round;stroke-linejoin:round;stroke-miterlimit:1.5;">
    <g transform="matrix(1,0,0,1,-602.538,-4970.81)">
        <g id="Artboard4" transform="matrix(0.536558,0,0,0.749416,602.538,1462.99)">
            <rect x="0" y="4680.74" width="13006.2" height="2599.34" style="fill:none;"/>
            <g transform="matrix(0.664449,0,0,0.475724,-251.618,7825.86)">
                <g transform="matrix(1,0,0,1,483.308,-6486.73)">
                    <path d="M342.285,251.618C342.285,251.618 319.54,221.707 263.384,219.405C207.228,217.103 117.113,266.754 85.879,296.499C54.645,326.243 36.577,370.197 57.217,404.676C77.858,439.155 110.077,575.52 182.952,553.9C255.827,532.28 287.118,516.457 287.118,516.457C287.118,516.457 263.155,387.363 342.285,251.618Z" style="stroke:black;stroke-width:2.8px;"/>
                    <path d="M550.53,219.328C550.53,219.328 644.988,130.249 694.238,162.118C743.488,193.988 848.676,242.613 852.978,287.41C857.28,332.207 862.764,417.608 839.374,443.874C815.983,470.139 760.743,489.65 739.046,493.624C717.348,497.598 645.717,245.177 550.53,219.328Z"/>
                    <path d="M384.749,458.316C419.631,452.467 440.124,473.581 437.03,493.67C433.936,513.759 470.246,636.622 405.379,616.441C402.332,615.493 389.046,632.129 370.316,622.9C351.587,613.671 344.046,587.728 342.285,556.21C340.525,524.691 318.092,469.493 384.749,458.316Z"/>
                    <path d="M878.087,348.28L929.957,307.671L880.16,521.275C880.16,521.275 808.811,567.79 794.566,661.452C794.566,661.452 639.251,728.155 639.5,728.155C639.749,728.155 623.426,680.384 623.426,680.384C623.426,680.384 751.092,599.697 783.374,541.512C815.655,483.327 855.316,492.889 878.087,348.28Z"/>
                    <path d="M958.556,205.275C958.556,205.275 939.993,170.999 985.004,167.077C985.004,167.077 995.759,130.868 1032.12,143.056C1068.49,155.243 1165.44,163.743 1189,183.436C1212.57,203.129 1247.35,262.441 1226.11,296.967C1204.87,331.493 1153.06,373.43 1105.91,493.67L1137.18,353.566C1137.18,353.566 1235.5,303.108 1197.97,256.171C1170.46,221.776 1141.96,201.929 1105.29,195.209C1091.92,192.758 1077.46,192.053 1061.57,193.025C1002.1,196.66 1015.82,202.603 1002.93,205.207C990.04,207.811 964.621,215.098 958.556,205.275Z"/>
                    <path d="M1058.77,176.874L1145.45,177.488L1085.15,241.506L1060.23,235.257C1060.23,235.257 1134.93,189.647 1035.92,195.209C936.916,200.77 1058.77,176.874 1058.77,176.874Z" style="stroke:black;stroke-width:2.8px;"/>
                    <path d="M1110.18,195.744C1110.18,195.744 1074.45,228.212 1055.29,238.322C1036.13,248.431 977.812,292.7 988.67,304.641C988.67,304.641 1010.77,310.323 1021.86,298.65C1021.91,298.595 1067.34,294.911 1074.46,289.224C1081.57,283.538 1102.5,263.523 1110.7,268.148C1110.7,268.148 1109.8,278.237 1101.37,285.129C1092.94,292.021 1061.13,344.975 1061.13,344.975C1061.13,344.975 1034.45,370.161 1033.45,383.182C1033.45,383.182 1065.83,384.733 1078.6,362.265C1078.6,362.265 1104.72,351.46 1115.69,340.657C1126.65,329.855 1117.49,332.09 1135.3,321.959L1107.13,357.346C1107.13,357.346 1102.42,373.182 1102.42,373.107C1102.42,373.032 1180.75,324.195 1185.43,299.471C1185.43,299.471 1242.37,287.031 1199.12,236.239C1181.51,215.553 1157.31,191.286 1110.18,195.744Z" style="stroke:black;stroke-width:2.8px;"/>
                    <ellipse cx="314.488" cy="487.3" rx="14.885" ry="21.915"/>
                    <ellipse cx="519.814" cy="454.8" rx="24.131" ry="23.559"/>
                    <path d="M519.814,716.114C519.814,716.114 476.38,741.373 435.747,706.055C395.113,670.738 422.368,864.178 436.08,924.784C449.792,985.389 504.199,1103.67 658.841,1016.91C813.484,930.15 952.434,831.655 1003.61,815.01C1054.78,798.365 1053.3,787.942 1083.72,788.29C1114.15,788.639 1121.59,782.728 1125.59,771.321C1129.6,759.913 1131.05,742.033 1087.53,741.341C1087.53,741.341 1100.88,729.765 1115.21,728.395C1129.54,727.025 1145.44,703.744 1140.44,691.982C1135.44,680.22 1130.4,678.927 1130.4,678.927C1130.4,678.927 1147.02,637.528 1121.99,632.892C1096.95,628.255 1072.01,631.675 1072.01,631.675L1070.84,639.011L1087.53,640.857C1087.53,640.857 1081.72,650.599 1055.35,657.363C1028.98,664.128 1006.89,669.353 990.668,667.615C974.446,665.878 954.749,659.547 938.774,639.756C922.8,619.964 914.259,604.33 908.298,587.702C902.337,571.074 897.654,559.826 886.356,557.273C875.058,554.719 860.52,542.332 858.378,577.394C856.441,609.099 871.903,640.157 868.743,653.468C865.583,666.779 860.062,698.799 832.085,709.623C804.109,720.447 776.327,724.454 724.232,748.78C672.136,773.107 649.702,797.664 613.685,790.464C577.668,783.263 525.816,763.156 519.814,716.114Z"/>
                    <path d="M1026.33,813.625C1026.33,813.625 1109.73,826.301 1125.91,886.887C1142.1,947.473 1132.92,1020.12 1093.74,1094.39C1054.55,1168.67 1012,1269.62 976.597,1312.7C941.198,1355.78 920.983,1401.28 850.905,1381.67L885.546,1274.24C885.546,1274.24 1002.18,1263.48 1025.43,1155.41C1048.68,1047.34 1054.85,1007.21 979.147,981.238L1026.33,813.625Z"/>
                    <path d="M1008.77,1007.62C1022.44,1011.48 1027.81,1051.44 1024.77,1067.14C1021.72,1082.83 1017.8,1090.93 1008.68,1099.99C999.552,1109.05 996.359,1103.52 997.152,1115.51C997.944,1127.5 997.532,1216.29 987.334,1238.28C977.136,1260.27 937.838,1285.92 878.631,1294.78L939.69,1115.82C939.69,1115.82 892.831,1089.63 947.854,1094.62C971.702,1096.78 959.707,1079.16 959.707,1079.16C959.707,1079.16 950.183,1065.19 953.114,1058.35C953.114,1058.35 906.71,1041.48 960.142,1041.92L980.556,1042.83C980.556,1042.83 974.607,1032.83 987.334,1027.93C987.334,1027.93 943.708,1000.27 978.722,1002.17C1013.74,1004.08 995.522,1003.87 1008.77,1007.62Z" style="stroke:black;stroke-width:2.8px;"/>
                    <path d="M414.352,892.443C414.352,892.443 351.687,944.965 414.352,1099.99C477.018,1255.02 495.744,1240.64 505.178,1269.29C514.611,1297.94 544.797,1356.45 601.329,1373.03L652.325,1240.93C652.325,1240.93 738.183,1222.38 674.407,1197.42C640.763,1184.25 669.095,1180.01 676.399,1182.15C683.703,1184.3 772.579,1175.47 703.204,1148.43C647.286,1126.63 675.255,1122.63 695.744,1125.43C716.233,1128.23 744.879,1108.75 705.251,1099.99C665.622,1091.23 639.235,1101.91 632.808,1112.55C626.381,1123.19 629.199,1133.66 629.087,1137.99C628.976,1142.32 617.874,1151.29 613.752,1165.92C609.629,1180.55 586.245,1212.31 596.405,1165.06C605.397,1123.25 605.793,1104.39 647.034,1090.47L593.459,1059.51C593.459,1059.51 450.25,1130.07 414.352,892.443Z"/>
                </g>
                <g transform="matrix(3.08549,0,0,3.08549,-2334.66,-5972.21)">
                    <g transform="matrix(300,0,0,300,924.182,517.427)">
                        <path d="M0.391,-0C0.396,-0 0.399,-0.004 0.399,-0.009C0.399,-0.014 0.397,-0.017 0.391,-0.018C0.377,-0.019 0.357,-0.02 0.342,-0.021C0.31,-0.024 0.31,-0.021 0.31,-0.389C0.31,-0.702 0.312,-0.702 0.342,-0.704C0.352,-0.705 0.375,-0.706 0.387,-0.706C0.392,-0.706 0.395,-0.71 0.395,-0.715C0.395,-0.719 0.393,-0.724 0.387,-0.724C0.321,-0.724 0.276,-0.72 0.205,-0.72C0.136,-0.72 0.092,-0.724 0.028,-0.724C0.023,-0.724 0.02,-0.72 0.02,-0.715C0.02,-0.71 0.022,-0.706 0.028,-0.706C0.04,-0.706 0.063,-0.705 0.073,-0.704C0.105,-0.702 0.105,-0.703 0.105,-0.389C0.105,-0.021 0.105,-0.024 0.073,-0.021C0.059,-0.02 0.038,-0.018 0.024,-0.018C0.019,-0.018 0.016,-0.014 0.016,-0.009C0.016,-0.004 0.018,-0 0.024,-0C0.091,-0 0.136,-0.004 0.208,-0.004C0.279,-0.004 0.325,-0 0.391,-0Z" style="fill-rule:nonzero;"/>
                    </g>
                    <g transform="matrix(300,0,0,300,1048.68,517.427)">
                        <path d="M0.719,0.01C0.728,0.01 0.733,-0.003 0.733,-0.029C0.735,-0.122 0.735,-0.201 0.735,-0.28C0.744,-0.605 0.753,-0.654 0.774,-0.697C0.784,-0.699 0.81,-0.706 0.827,-0.706C0.833,-0.706 0.836,-0.71 0.836,-0.715C0.836,-0.72 0.833,-0.724 0.827,-0.724C0.79,-0.724 0.77,-0.721 0.733,-0.721C0.693,-0.721 0.67,-0.724 0.63,-0.724C0.624,-0.724 0.621,-0.719 0.621,-0.714C0.621,-0.709 0.623,-0.707 0.63,-0.706C0.642,-0.705 0.68,-0.7 0.687,-0.699C0.707,-0.664 0.711,-0.633 0.711,-0.348L0.711,-0.275C0.588,-0.401 0.383,-0.615 0.293,-0.724C0.291,-0.726 0.287,-0.728 0.278,-0.728C0.259,-0.728 0.209,-0.721 0.122,-0.721C0.088,-0.721 0.054,-0.722 0.016,-0.724C0.011,-0.724 0.008,-0.72 0.008,-0.715C0.008,-0.71 0.01,-0.706 0.016,-0.706C0.049,-0.707 0.063,-0.683 0.118,-0.615L0.118,-0.459C0.118,-0.145 0.099,-0.05 0.081,-0.024C0.071,-0.022 0.043,-0.018 0.022,-0.018C0.016,-0.018 0.013,-0.014 0.013,-0.009C0.013,-0.004 0.016,-0 0.022,-0C0.063,-0 0.087,-0.003 0.128,-0.003C0.171,-0.003 0.196,-0 0.239,-0C0.245,-0 0.249,-0.004 0.249,-0.009C0.249,-0.013 0.246,-0.017 0.239,-0.018C0.227,-0.019 0.189,-0.021 0.182,-0.022C0.157,-0.026 0.143,-0.268 0.143,-0.554L0.143,-0.588L0.682,-0.016C0.699,0.002 0.708,0.01 0.719,0.01Z" style="fill-rule:nonzero;"/>
                    </g>
                    <g transform="matrix(300,0,0,300,1298.28,517.427)">
                        <path d="M0.297,-0.455C0.297,-0.701 0.3,-0.702 0.337,-0.705C0.345,-0.706 0.361,-0.706 0.369,-0.706C0.374,-0.706 0.379,-0.709 0.379,-0.715C0.379,-0.72 0.375,-0.724 0.369,-0.724C0.304,-0.723 0.267,-0.72 0.202,-0.72C0.136,-0.72 0.099,-0.723 0.033,-0.724C0.028,-0.724 0.025,-0.72 0.025,-0.715C0.025,-0.71 0.027,-0.707 0.033,-0.706C0.045,-0.705 0.055,-0.705 0.065,-0.705C0.097,-0.704 0.096,-0.705 0.097,-0.389C0.098,-0.019 0.096,-0.022 0.064,-0.02C0.05,-0.019 0.045,-0.019 0.029,-0.018C0.024,-0.018 0.021,-0.014 0.021,-0.009C0.021,-0.004 0.023,-0 0.029,-0C0.096,-0 0.133,-0.004 0.2,-0.004C0.263,-0.004 0.298,-0 0.361,-0C0.367,-0 0.371,-0.004 0.371,-0.009C0.371,-0.014 0.368,-0.018 0.361,-0.018C0.353,-0.018 0.349,-0.018 0.341,-0.019C0.297,-0.022 0.297,-0.02 0.297,-0.242L0.297,-0.289L0.342,-0.333L0.495,-0.08C0.512,-0.049 0.52,-0.035 0.52,-0.028C0.52,-0.022 0.513,-0.02 0.502,-0.019C0.491,-0.018 0.486,-0.017 0.479,-0.016C0.472,-0.015 0.469,-0.011 0.47,-0.006C0.471,-0.001 0.474,0.002 0.479,0.002C0.525,-0.001 0.619,-0.003 0.644,-0.003C0.714,-0.003 0.754,-0 0.824,-0C0.83,-0 0.832,-0.004 0.832,-0.009C0.832,-0.013 0.829,-0.018 0.824,-0.018C0.764,-0.023 0.732,-0.08 0.598,-0.299C0.559,-0.364 0.488,-0.474 0.488,-0.474L0.639,-0.614C0.694,-0.665 0.744,-0.706 0.807,-0.706C0.813,-0.706 0.815,-0.71 0.815,-0.715C0.815,-0.719 0.812,-0.724 0.807,-0.724C0.756,-0.724 0.726,-0.72 0.675,-0.72C0.634,-0.72 0.611,-0.724 0.57,-0.724C0.564,-0.724 0.56,-0.72 0.56,-0.715C0.56,-0.709 0.565,-0.706 0.57,-0.706C0.586,-0.706 0.601,-0.698 0.612,-0.686C0.605,-0.632 0.51,-0.544 0.436,-0.463C0.385,-0.407 0.346,-0.371 0.297,-0.326L0.297,-0.455Z" style="fill-rule:nonzero;"/>
                    </g>
                </g>
                <g transform="matrix(9.67974,0,0,9.67974,-8418.64,-9101.52)">
                    <g transform="matrix(31.4331,0,0,31.4331,924.182,517.427)">
                        <path d="M0.229,-0.024C0.225,-0.094 0.225,-0.224 0.225,-0.316C0.225,-0.408 0.225,-0.537 0.229,-0.607C0.244,-0.608 0.296,-0.612 0.318,-0.619C0.321,-0.62 0.325,-0.623 0.325,-0.627C0.325,-0.633 0.321,-0.637 0.315,-0.637C0.308,-0.637 0.254,-0.631 0.176,-0.631C0.098,-0.631 0.045,-0.637 0.037,-0.637C0.031,-0.637 0.027,-0.633 0.027,-0.627C0.027,-0.623 0.031,-0.62 0.034,-0.619C0.056,-0.612 0.108,-0.608 0.123,-0.607C0.127,-0.54 0.127,-0.408 0.127,-0.316C0.127,-0.224 0.127,-0.091 0.123,-0.024C0.108,-0.023 0.056,-0.019 0.034,-0.012C0.031,-0.011 0.027,-0.008 0.027,-0.004C0.027,0.002 0.031,0.006 0.037,0.006C0.045,0.006 0.098,-0 0.176,-0C0.254,-0 0.308,0.006 0.315,0.006C0.321,0.006 0.325,0.002 0.325,-0.004C0.325,-0.008 0.321,-0.011 0.318,-0.012C0.296,-0.019 0.244,-0.023 0.229,-0.024Z" style="fill-rule:nonzero;"/>
                    </g>
                    <g transform="matrix(31.4331,0,0,31.4331,935.246,517.427)">
                        <path d="M0.173,-0.291C0.211,-0.291 0.253,-0.289 0.289,-0.288L0.289,-0.319C0.271,-0.319 0.252,-0.318 0.232,-0.318C0.212,-0.317 0.192,-0.316 0.173,-0.316C0.173,-0.396 0.173,-0.464 0.177,-0.508L0.075,-0.452C0.078,-0.428 0.078,-0.368 0.078,-0.316C0.067,-0.316 0.056,-0.317 0.045,-0.317C0.034,-0.318 0.023,-0.319 0.012,-0.319L0.012,-0.288C0.034,-0.289 0.056,-0.291 0.078,-0.291C0.078,-0.218 0.075,-0.155 0.075,-0.104C0.075,-0.066 0.082,0.012 0.168,0.012C0.235,0.012 0.31,-0.038 0.31,-0.06C0.31,-0.067 0.306,-0.069 0.301,-0.069C0.291,-0.069 0.261,-0.039 0.223,-0.039C0.173,-0.039 0.173,-0.107 0.173,-0.148L0.173,-0.291Z" style="fill-rule:nonzero;"/>
                    </g>
                    <g transform="matrix(31.4331,0,0,31.4331,945.148,517.427)">
                        <path d="M0.128,-0.56C0.133,-0.592 0.138,-0.614 0.138,-0.628C0.138,-0.646 0.128,-0.648 0.092,-0.648C0.065,-0.648 0.046,-0.648 0.046,-0.63C0.046,-0.614 0.052,-0.592 0.056,-0.561L0.076,-0.423L0.108,-0.423L0.128,-0.56Z" style="fill-rule:nonzero;"/>
                    </g>
                    <g transform="matrix(31.4331,0,0,31.4331,950.963,517.427)">
                        <path d="M0.313,-0.1C0.313,-0.154 0.283,-0.183 0.25,-0.196C0.203,-0.215 0.077,-0.206 0.077,-0.258C0.077,-0.28 0.107,-0.29 0.135,-0.29C0.193,-0.29 0.252,-0.256 0.276,-0.243C0.276,-0.232 0.276,-0.216 0.287,-0.216C0.296,-0.216 0.298,-0.222 0.298,-0.23C0.298,-0.243 0.297,-0.269 0.297,-0.285C0.297,-0.308 0.305,-0.353 0.305,-0.359C0.305,-0.363 0.301,-0.367 0.297,-0.367C0.286,-0.367 0.282,-0.342 0.276,-0.319C0.262,-0.321 0.23,-0.328 0.195,-0.328C0.131,-0.328 0.045,-0.306 0.045,-0.221C0.045,-0.065 0.279,-0.143 0.279,-0.059C0.279,-0.035 0.249,-0.026 0.218,-0.026C0.155,-0.026 0.092,-0.062 0.067,-0.08C0.065,-0.092 0.065,-0.118 0.053,-0.118C0.045,-0.118 0.044,-0.107 0.044,-0.099C0.043,-0.08 0.043,-0.059 0.043,-0.04C0.043,-0.016 0.038,0.015 0.038,0.023C0.038,0.028 0.038,0.035 0.046,0.035C0.058,0.035 0.063,0.001 0.064,-0.006C0.102,0.005 0.127,0.012 0.174,0.012C0.239,0.012 0.313,-0.02 0.313,-0.1Z" style="fill-rule:nonzero;"/>
                    </g>
                    <g transform="matrix(31.4331,0,0,31.4331,969.005,517.427)">
                        <path d="M0.588,-0.163L0.185,-0.636C0.167,-0.635 0.135,-0.631 0.113,-0.631C0.079,-0.631 0.05,-0.636 0.033,-0.636C0.026,-0.636 0.02,-0.632 0.02,-0.625C0.02,-0.618 0.026,-0.615 0.043,-0.611C0.076,-0.603 0.108,-0.57 0.141,-0.534C0.141,-0.236 0.131,-0.13 0.115,-0.024C0.102,-0.023 0.058,-0.019 0.038,-0.012C0.035,-0.011 0.031,-0.008 0.031,-0.004C0.031,0.002 0.035,0.006 0.041,0.006C0.046,0.006 0.095,-0 0.155,-0C0.23,-0 0.281,0.006 0.287,0.006C0.293,0.006 0.297,0.002 0.297,-0.004C0.297,-0.008 0.293,-0.011 0.29,-0.012C0.267,-0.019 0.206,-0.023 0.191,-0.024C0.175,-0.129 0.166,-0.236 0.166,-0.505L0.457,-0.163C0.605,0.013 0.604,0.017 0.613,0.017C0.618,0.017 0.62,0.011 0.62,0.006C0.62,-0.002 0.613,-0.123 0.613,-0.306C0.613,-0.423 0.624,-0.545 0.639,-0.607C0.652,-0.608 0.698,-0.612 0.718,-0.619C0.721,-0.62 0.725,-0.623 0.725,-0.627C0.725,-0.633 0.721,-0.637 0.715,-0.637C0.71,-0.637 0.666,-0.631 0.604,-0.631C0.533,-0.631 0.479,-0.637 0.472,-0.637C0.466,-0.637 0.462,-0.633 0.462,-0.627C0.462,-0.623 0.466,-0.62 0.469,-0.619C0.493,-0.612 0.549,-0.608 0.566,-0.607C0.576,-0.545 0.588,-0.423 0.588,-0.306L0.588,-0.163Z" style="fill-rule:nonzero;"/>
                    </g>
                    <g transform="matrix(31.4331,0,0,31.4331,991.731,517.427)">
                        <path d="M0.45,-0.163C0.45,-0.27 0.347,-0.328 0.242,-0.328C0.121,-0.328 0.031,-0.259 0.031,-0.156C0.031,-0.036 0.147,0.012 0.242,0.012C0.359,0.012 0.45,-0.06 0.45,-0.163ZM0.242,-0.008C0.163,-0.008 0.134,-0.081 0.134,-0.156C0.134,-0.238 0.173,-0.308 0.242,-0.308C0.3,-0.308 0.347,-0.261 0.347,-0.163C0.347,-0.077 0.313,-0.008 0.242,-0.008Z" style="fill-rule:nonzero;"/>
                    </g>
                    <g transform="matrix(31.4331,0,0,31.4331,1006.85,517.427)">
                        <path d="M0.173,-0.291C0.211,-0.291 0.253,-0.289 0.289,-0.288L0.289,-0.319C0.271,-0.319 0.252,-0.318 0.232,-0.318C0.212,-0.317 0.192,-0.316 0.173,-0.316C0.173,-0.396 0.173,-0.464 0.177,-0.508L0.075,-0.452C0.078,-0.428 0.078,-0.368 0.078,-0.316C0.067,-0.316 0.056,-0.317 0.045,-0.317C0.034,-0.318 0.023,-0.319 0.012,-0.319L0.012,-0.288C0.034,-0.289 0.056,-0.291 0.078,-0.291C0.078,-0.218 0.075,-0.155 0.075,-0.104C0.075,-0.066 0.082,0.012 0.168,0.012C0.235,0.012 0.31,-0.038 0.31,-0.06C0.31,-0.067 0.306,-0.069 0.301,-0.069C0.291,-0.069 0.261,-0.039 0.223,-0.039C0.173,-0.039 0.173,-0.107 0.173,-0.148L0.173,-0.291Z" style="fill-rule:nonzero;"/>
                    </g>
                    <g transform="matrix(31.4331,0,0,31.4331,1023.73,517.427)">
                        <path d="M0.25,-0.165C0.225,-0.173 0.19,-0.185 0.15,-0.185C0.093,-0.185 0.03,-0.154 0.03,-0.084C0.03,-0.028 0.072,0.012 0.128,0.012C0.177,0.012 0.227,-0.03 0.25,-0.047L0.25,-0.029C0.25,-0.007 0.253,0.012 0.281,0.012C0.353,0.012 0.424,-0.041 0.424,-0.064C0.424,-0.068 0.422,-0.072 0.415,-0.072C0.406,-0.072 0.382,-0.039 0.352,-0.039C0.342,-0.039 0.339,-0.045 0.339,-0.055C0.339,-0.082 0.346,-0.161 0.346,-0.224C0.346,-0.295 0.314,-0.328 0.229,-0.328C0.153,-0.328 0.055,-0.282 0.055,-0.261C0.055,-0.253 0.057,-0.25 0.065,-0.25C0.073,-0.25 0.088,-0.258 0.109,-0.265C0.13,-0.273 0.158,-0.28 0.189,-0.28C0.242,-0.28 0.25,-0.252 0.25,-0.209L0.25,-0.165ZM0.251,-0.07C0.227,-0.054 0.201,-0.035 0.173,-0.035C0.147,-0.035 0.13,-0.057 0.13,-0.093C0.13,-0.137 0.15,-0.159 0.187,-0.159C0.209,-0.159 0.228,-0.151 0.251,-0.143L0.251,-0.07Z" style="fill-rule:nonzero;"/>
                    </g>
                    <g transform="matrix(31.4331,0,0,31.4331,1044.1,517.427)">
                        <path d="M0.455,-0.579C0.399,-0.511 0.271,-0.361 0.222,-0.317C0.222,-0.403 0.222,-0.539 0.226,-0.607C0.241,-0.608 0.293,-0.612 0.315,-0.619C0.318,-0.62 0.322,-0.623 0.322,-0.627C0.322,-0.633 0.318,-0.637 0.312,-0.637C0.305,-0.637 0.251,-0.631 0.173,-0.631C0.095,-0.631 0.042,-0.637 0.034,-0.637C0.028,-0.637 0.024,-0.633 0.024,-0.627C0.024,-0.623 0.028,-0.62 0.031,-0.619C0.053,-0.612 0.105,-0.608 0.12,-0.607C0.124,-0.54 0.124,-0.408 0.124,-0.316C0.124,-0.224 0.124,-0.091 0.12,-0.024C0.105,-0.023 0.053,-0.019 0.031,-0.012C0.028,-0.011 0.024,-0.008 0.024,-0.004C0.024,0.002 0.028,0.006 0.034,0.006C0.042,0.006 0.095,-0 0.173,-0C0.251,-0 0.305,0.006 0.312,0.006C0.318,0.006 0.322,0.002 0.322,-0.004C0.322,-0.008 0.318,-0.011 0.315,-0.012C0.293,-0.019 0.241,-0.023 0.226,-0.024C0.222,-0.09 0.222,-0.218 0.222,-0.297C0.329,-0.299 0.339,-0.273 0.398,-0.179L0.434,-0.122C0.499,-0.02 0.523,0.021 0.58,0.021C0.623,0.021 0.677,-0.018 0.677,-0.037C0.677,-0.041 0.672,-0.045 0.667,-0.045C0.656,-0.045 0.648,-0.03 0.63,-0.03C0.619,-0.03 0.605,-0.042 0.588,-0.066C0.539,-0.135 0.493,-0.223 0.447,-0.277C0.439,-0.286 0.419,-0.301 0.402,-0.309C0.383,-0.318 0.358,-0.322 0.327,-0.322C0.292,-0.322 0.272,-0.319 0.245,-0.314L0.243,-0.316C0.276,-0.344 0.309,-0.373 0.342,-0.402C0.394,-0.448 0.474,-0.52 0.537,-0.568C0.566,-0.59 0.584,-0.602 0.59,-0.607C0.603,-0.608 0.649,-0.612 0.669,-0.619C0.672,-0.62 0.676,-0.623 0.676,-0.627C0.676,-0.633 0.672,-0.637 0.666,-0.637C0.66,-0.637 0.609,-0.631 0.537,-0.631C0.464,-0.631 0.411,-0.637 0.403,-0.637C0.397,-0.637 0.393,-0.633 0.393,-0.627C0.393,-0.623 0.397,-0.62 0.4,-0.619C0.421,-0.612 0.462,-0.608 0.476,-0.607C0.469,-0.598 0.462,-0.588 0.455,-0.579Z" style="fill-rule:nonzero;"/>
                    </g>
                    <g transform="matrix(31.4331,0,0,31.4331,1066.23,517.427)">
                        <path d="M0.45,-0.163C0.45,-0.27 0.347,-0.328 0.242,-0.328C0.121,-0.328 0.031,-0.259 0.031,-0.156C0.031,-0.036 0.147,0.012 0.242,0.012C0.359,0.012 0.45,-0.06 0.45,-0.163ZM0.242,-0.008C0.163,-0.008 0.134,-0.081 0.134,-0.156C0.134,-0.238 0.173,-0.308 0.242,-0.308C0.3,-0.308 0.347,-0.261 0.347,-0.163C0.347,-0.077 0.313,-0.008 0.242,-0.008Z" style="fill-rule:nonzero;"/>
                    </g>
                    <g transform="matrix(31.4331,0,0,31.4331,1081.35,517.427)">
                        <path d="M0.25,-0.165C0.225,-0.173 0.19,-0.185 0.15,-0.185C0.093,-0.185 0.03,-0.154 0.03,-0.084C0.03,-0.028 0.072,0.012 0.128,0.012C0.177,0.012 0.227,-0.03 0.25,-0.047L0.25,-0.029C0.25,-0.007 0.253,0.012 0.281,0.012C0.353,0.012 0.424,-0.041 0.424,-0.064C0.424,-0.068 0.422,-0.072 0.415,-0.072C0.406,-0.072 0.382,-0.039 0.352,-0.039C0.342,-0.039 0.339,-0.045 0.339,-0.055C0.339,-0.082 0.346,-0.161 0.346,-0.224C0.346,-0.295 0.314,-0.328 0.229,-0.328C0.153,-0.328 0.055,-0.282 0.055,-0.261C0.055,-0.253 0.057,-0.25 0.065,-0.25C0.073,-0.25 0.088,-0.258 0.109,-0.265C0.13,-0.273 0.158,-0.28 0.189,-0.28C0.242,-0.28 0.25,-0.252 0.25,-0.209L0.25,-0.165ZM0.251,-0.07C0.227,-0.054 0.201,-0.035 0.173,-0.035C0.147,-0.035 0.13,-0.057 0.13,-0.093C0.13,-0.137 0.15,-0.159 0.187,-0.159C0.209,-0.159 0.228,-0.151 0.251,-0.143L0.251,-0.07Z" style="fill-rule:nonzero;"/>
                    </g>
                    <g transform="matrix(31.4331,0,0,31.4331,1094.74,517.427)">
                        <path d="M0.261,-0.004C0.261,-0.008 0.257,-0.011 0.254,-0.012C0.238,-0.019 0.191,-0.023 0.182,-0.024C0.18,-0.098 0.18,-0.251 0.18,-0.362C0.18,-0.453 0.186,-0.624 0.186,-0.743C0.186,-0.758 0.183,-0.77 0.174,-0.77C0.168,-0.77 0.133,-0.757 0.092,-0.747C0.061,-0.739 0.032,-0.731 0.007,-0.725C0.003,-0.724 -0.001,-0.722 -0.001,-0.718C-0.001,-0.71 0.002,-0.708 0.01,-0.708C0.019,-0.708 0.048,-0.714 0.064,-0.714C0.084,-0.714 0.084,-0.697 0.084,-0.666C0.084,-0.597 0.085,-0.453 0.085,-0.362C0.085,-0.251 0.085,-0.098 0.081,-0.024C0.07,-0.023 0.029,-0.019 0.012,-0.012C0.009,-0.011 0.005,-0.008 0.005,-0.004C0.005,0.002 0.009,0.006 0.015,0.006C0.021,0.006 0.067,-0 0.131,-0C0.197,-0 0.244,0.006 0.251,0.006C0.257,0.006 0.261,0.002 0.261,-0.004Z" style="fill-rule:nonzero;"/>
                    </g>
                    <g transform="matrix(31.4331,0,0,31.4331,1102.88,517.427)">
                        <path d="M0.25,-0.165C0.225,-0.173 0.19,-0.185 0.15,-0.185C0.093,-0.185 0.03,-0.154 0.03,-0.084C0.03,-0.028 0.072,0.012 0.128,0.012C0.177,0.012 0.227,-0.03 0.25,-0.047L0.25,-0.029C0.25,-0.007 0.253,0.012 0.281,0.012C0.353,0.012 0.424,-0.041 0.424,-0.064C0.424,-0.068 0.422,-0.072 0.415,-0.072C0.406,-0.072 0.382,-0.039 0.352,-0.039C0.342,-0.039 0.339,-0.045 0.339,-0.055C0.339,-0.082 0.346,-0.161 0.346,-0.224C0.346,-0.295 0.314,-0.328 0.229,-0.328C0.153,-0.328 0.055,-0.282 0.055,-0.261C0.055,-0.253 0.057,-0.25 0.065,-0.25C0.073,-0.25 0.088,-0.258 0.109,-0.265C0.13,-0.273 0.158,-0.28 0.189,-0.28C0.242,-0.28 0.25,-0.252 0.25,-0.209L0.25,-0.165ZM0.251,-0.07C0.227,-0.054 0.201,-0.035 0.173,-0.035C0.147,-0.035 0.13,-0.057 0.13,-0.093C0.13,-0.137 0.15,-0.159 0.187,-0.159C0.209,-0.159 0.228,-0.151 0.251,-0.143L0.251,-0.07Z" style="fill-rule:nonzero;"/>
                    </g>
                    <g transform="matrix(31.4331,0,0,31.4331,1116.27,517.427)">
                        <path d="M0.137,-0.192C0.142,-0.258 0.156,-0.417 0.171,-0.571C0.173,-0.588 0.175,-0.605 0.175,-0.614C0.175,-0.626 0.17,-0.631 0.158,-0.631C0.142,-0.631 0.064,-0.602 0.064,-0.57C0.064,-0.554 0.093,-0.3 0.1,-0.231C0.106,-0.185 0.107,-0.14 0.119,-0.14C0.131,-0.14 0.134,-0.155 0.137,-0.192ZM0.18,-0.046C0.18,-0.078 0.155,-0.104 0.122,-0.104C0.09,-0.104 0.064,-0.078 0.064,-0.046C0.064,-0.014 0.09,0.012 0.122,0.012C0.155,0.012 0.18,-0.014 0.18,-0.046Z" style="fill-rule:nonzero;"/>
                    </g>
                </g>
            </g>
            <g transform="matrix(0.687063,0,0,0.503549,-263.641,7810.82)">
                <g transform="matrix(1,0,0,1,483.308,-3683.19)">
                    <path d="M342.285,251.618C342.285,251.618 319.54,221.707 263.384,219.405C207.228,217.103 117.113,266.754 85.879,296.499C54.645,326.243 36.577,370.197 57.217,404.676C77.858,439.155 110.077,575.52 182.952,553.9C255.827,532.28 287.118,516.457 287.118,516.457C287.118,516.457 263.155,387.363 342.285,251.618Z" style="stroke:black;stroke-width:2.68px;"/>
                    <path d="M550.53,219.328C550.53,219.328 644.988,130.249 694.238,162.118C743.488,193.988 848.676,242.613 852.978,287.41C857.28,332.207 862.764,417.608 839.374,443.874C815.983,470.139 760.743,489.65 739.046,493.624C717.348,497.598 645.717,245.177 550.53,219.328Z"/>
                    <path d="M384.749,458.316C419.631,452.467 440.124,473.581 437.03,493.67C433.936,513.759 470.246,636.622 405.379,616.441C402.332,615.493 389.046,632.129 370.316,622.9C351.587,613.671 344.046,587.728 342.285,556.21C340.525,524.691 318.092,469.493 384.749,458.316Z"/>
                    <path d="M878.087,348.28L929.957,307.671L880.16,521.275C880.16,521.275 808.811,567.79 794.566,661.452C794.566,661.452 639.251,728.155 639.5,728.155C639.749,728.155 623.426,680.384 623.426,680.384C623.426,680.384 751.092,599.697 783.374,541.512C815.655,483.327 855.316,492.889 878.087,348.28Z"/>
                    <path d="M958.556,205.275C958.556,205.275 939.993,170.999 985.004,167.077C985.004,167.077 995.759,130.868 1032.12,143.056C1068.49,155.243 1165.44,163.743 1189,183.436C1212.57,203.129 1247.35,262.441 1226.11,296.967C1204.87,331.493 1153.06,373.43 1105.91,493.67L1137.18,353.566C1137.18,353.566 1235.5,303.108 1197.97,256.171C1170.46,221.776 1141.96,201.929 1105.29,195.209C1091.92,192.758 1077.46,192.053 1061.57,193.025C1002.1,196.66 1015.82,202.603 1002.93,205.207C990.04,207.811 964.621,215.098 958.556,205.275Z"/>
                    <path d="M1058.77,176.874L1145.45,177.488L1085.15,241.506L1060.23,235.257C1060.23,235.257 1134.93,189.647 1035.92,195.209C936.916,200.77 1058.77,176.874 1058.77,176.874Z" style="stroke:black;stroke-width:2.68px;"/>
                    <path d="M1110.18,195.744C1110.18,195.744 1074.45,228.212 1055.29,238.322C1036.13,248.431 977.812,292.7 988.67,304.641C988.67,304.641 1010.77,310.323 1021.86,298.65C1021.91,298.595 1067.34,294.911 1074.46,289.224C1081.57,283.538 1102.5,263.523 1110.7,268.148C1110.7,268.148 1109.8,278.237 1101.37,285.129C1092.94,292.021 1061.13,344.975 1061.13,344.975C1061.13,344.975 1034.45,370.161 1033.45,383.182C1033.45,383.182 1065.83,384.733 1078.6,362.265C1078.6,362.265 1104.72,351.46 1115.69,340.657C1126.65,329.855 1117.49,332.09 1135.3,321.959L1107.13,357.346C1107.13,357.346 1102.42,373.182 1102.42,373.107C1102.42,373.032 1180.75,324.195 1185.43,299.471C1185.43,299.471 1242.37,287.031 1199.12,236.239C1181.51,215.553 1157.31,191.286 1110.18,195.744Z" style="stroke:black;stroke-width:2.68px;"/>
                    <ellipse cx="314.488" cy="487.3" rx="14.885" ry="21.915"/>
                    <ellipse cx="519.814" cy="454.8" rx="24.131" ry="23.559"/>
                    <path d="M519.814,716.114C519.814,716.114 476.38,741.373 435.747,706.055C395.113,670.738 422.368,864.178 436.08,924.784C449.792,985.389 504.199,1103.67 658.841,1016.91C813.484,930.15 952.434,831.655 1003.61,815.01C1054.78,798.365 1053.3,787.942 1083.72,788.29C1114.15,788.639 1121.59,782.728 1125.59,771.321C1129.6,759.913 1131.05,742.033 1087.53,741.341C1087.53,741.341 1100.88,729.765 1115.21,728.395C1129.54,727.025 1145.44,703.744 1140.44,691.982C1135.44,680.22 1130.4,678.927 1130.4,678.927C1130.4,678.927 1147.02,637.528 1121.99,632.892C1096.95,628.255 1072.01,631.675 1072.01,631.675L1070.84,639.011L1087.53,640.857C1087.53,640.857 1081.72,650.599 1055.35,657.363C1028.98,664.128 1006.89,669.353 990.668,667.615C974.446,665.878 954.749,659.547 938.774,639.756C922.8,619.964 914.259,604.33 908.298,587.702C902.337,571.074 897.654,559.826 886.356,557.273C875.058,554.719 860.52,542.332 858.378,577.394C856.441,609.099 871.903,640.157 868.743,653.468C865.583,666.779 860.062,698.799 832.085,709.623C804.109,720.447 776.327,724.454 724.232,748.78C672.136,773.107 649.702,797.664 613.685,790.464C577.668,783.263 525.816,763.156 519.814,716.114Z"/>
                    <path d="M1026.33,813.625C1026.33,813.625 1109.73,826.301 1125.91,886.887C1142.1,947.473 1132.92,1020.12 1093.74,1094.39C1054.55,1168.67 1012,1269.62 976.597,1312.7C941.198,1355.78 920.983,1401.28 850.905,1381.67L885.546,1274.24C885.546,1274.24 1002.18,1263.48 1025.43,1155.41C1048.68,1047.34 1054.85,1007.21 979.147,981.238L1026.33,813.625Z"/>
                    <path d="M1008.77,1007.62C1022.44,1011.48 1027.81,1051.44 1024.77,1067.14C1021.72,1082.83 1017.8,1090.93 1008.68,1099.99C999.552,1109.05 996.359,1103.52 997.152,1115.51C997.944,1127.5 997.532,1216.29 987.334,1238.28C977.136,1260.27 937.838,1285.92 878.631,1294.78L939.69,1115.82C939.69,1115.82 892.831,1089.63 947.854,1094.62C971.702,1096.78 959.707,1079.16 959.707,1079.16C959.707,1079.16 950.183,1065.19 953.114,1058.35C953.114,1058.35 906.71,1041.48 960.142,1041.92L980.556,1042.83C980.556,1042.83 974.607,1032.83 987.334,1027.93C987.334,1027.93 943.708,1000.27 978.722,1002.17C1013.74,1004.08 995.522,1003.87 1008.77,1007.62Z" style="stroke:black;stroke-width:2.68px;"/>
                    <path d="M414.352,892.443C414.352,892.443 351.687,944.965 414.352,1099.99C477.018,1255.02 495.744,1240.64 505.178,1269.29C514.611,1297.94 544.797,1356.45 601.329,1373.03L652.325,1240.93C652.325,1240.93 738.183,1222.38 674.407,1197.42C640.763,1184.25 669.095,1180.01 676.399,1182.15C683.703,1184.3 772.579,1175.47 703.204,1148.43C647.286,1126.63 675.255,1122.63 695.744,1125.43C716.233,1128.23 744.879,1108.75 705.251,1099.99C665.622,1091.23 639.235,1101.91 632.808,1112.55C626.381,1123.19 629.199,1133.66 629.087,1137.99C628.976,1142.32 617.874,1151.29 613.752,1165.92C609.629,1180.55 586.245,1212.31 596.405,1165.06C605.397,1123.25 605.793,1104.39 647.034,1090.47L593.459,1059.51C593.459,1059.51 450.25,1130.07 414.352,892.443Z"/>
                </g>
                <g transform="matrix(3.08549,0,0,3.08549,-2334.66,-3168.67)">
                    <g transform="matrix(300,0,0,300,924.182,517.427)">
                        <rect x="0.052" y="-0.7" width="0.174" height="0.7" style="fill-rule:nonzero;"/>
                    </g>
                    <g transform="matrix(300,0,0,300,1007.58,517.427)">
                        <path d="M0.23,-0L0.23,-0.41L0.232,-0.41L0.394,-0.098C0.44,-0.009 0.473,0.012 0.518,0.012C0.562,0.012 0.61,-0.026 0.61,-0.09L0.61,-0.7L0.436,-0.7L0.436,-0.33L0.434,-0.33L0.279,-0.638C0.253,-0.689 0.218,-0.712 0.159,-0.712C0.1,-0.712 0.056,-0.672 0.056,-0.616L0.056,-0L0.23,-0Z" style="fill-rule:nonzero;"/>
                    </g>
                    <g transform="matrix(300,0,0,300,1207.68,517.427)">
                        <path d="M0.063,-0L0.237,-0L0.237,-0.297C0.348,-0.297 0.377,-0.292 0.377,-0.222L0.377,-0L0.559,-0L0.559,-0.26C0.559,-0.326 0.526,-0.386 0.432,-0.411C0.46,-0.429 0.484,-0.466 0.498,-0.495L0.597,-0.7L0.398,-0.7L0.298,-0.491C0.286,-0.465 0.27,-0.46 0.237,-0.459L0.237,-0.7L0.063,-0.7L0.063,-0Z" style="fill-rule:nonzero;"/>
                    </g>
                </g>
                <g transform="matrix(7.31185,0,0,7.31185,-6211.54,-5189.76)">
                    <g transform="matrix(29.0151,0,0,29.0151,924.182,517.427)">
                        <rect x="0.09" y="-0.7" width="0.042" height="0.7" style="fill-rule:nonzero;"/>
                    </g>
                    <g transform="matrix(29.0151,0,0,29.0151,930.623,517.427)">
                        <path d="M0.098,-0.604L0.06,-0.604L0.06,-0.136C0.06,-0.052 0.108,-0 0.198,-0L0.266,-0L0.266,-0.036L0.19,-0.036C0.134,-0.036 0.098,-0.072 0.098,-0.132L0.098,-0.438L0.266,-0.438L0.266,-0.474L0.098,-0.474L0.098,-0.604Z" style="fill-rule:nonzero;"/>
                    </g>
                    <g transform="matrix(29.0151,0,0,29.0151,938.689,517.427)">
                        <rect x="0.092" y="-0.7" width="0.038" height="0.226" style="fill-rule:nonzero;"/>
                    </g>
                    <g transform="matrix(29.0151,0,0,29.0151,945.131,517.427)">
                        <path d="M0.038,-0L0.241,-0C0.346,-0 0.407,-0.039 0.407,-0.122C0.407,-0.309 0.079,-0.22 0.079,-0.36C0.079,-0.412 0.12,-0.438 0.161,-0.438L0.371,-0.438L0.371,-0.474L0.158,-0.474C0.08,-0.474 0.037,-0.421 0.037,-0.359C0.037,-0.182 0.365,-0.274 0.365,-0.116C0.365,-0.068 0.333,-0.036 0.25,-0.036L0.038,-0.036L0.038,-0Z" style="fill-rule:nonzero;"/>
                    </g>
                    <g transform="matrix(29.0151,0,0,29.0151,966.08,517.427)">
                        <path d="M0.11,-0L0.11,-0.656C0.11,-0.669 0.115,-0.674 0.122,-0.674C0.13,-0.674 0.136,-0.665 0.15,-0.635L0.428,-0.036C0.437,-0.016 0.454,0.012 0.492,0.012C0.527,0.012 0.543,-0.004 0.543,-0.038L0.543,-0.712L0.501,-0.712L0.501,-0.049C0.501,-0.036 0.497,-0.03 0.49,-0.03C0.483,-0.03 0.477,-0.036 0.473,-0.044L0.18,-0.67C0.163,-0.706 0.147,-0.712 0.12,-0.712C0.08,-0.712 0.068,-0.682 0.068,-0.656L0.068,-0L0.11,-0Z" style="fill-rule:nonzero;"/>
                    </g>
                    <g transform="matrix(29.0151,0,0,29.0151,983.808,517.427)">
                        <path d="M0.278,-0.448C0.394,-0.448 0.478,-0.347 0.478,-0.237C0.478,-0.127 0.394,-0.026 0.278,-0.026C0.162,-0.026 0.078,-0.127 0.078,-0.237C0.078,-0.347 0.162,-0.448 0.278,-0.448ZM0.278,-0.484C0.142,-0.484 0.038,-0.371 0.038,-0.237C0.038,-0.103 0.142,0.01 0.278,0.01C0.414,0.01 0.518,-0.103 0.518,-0.237C0.518,-0.371 0.414,-0.484 0.278,-0.484Z" style="fill-rule:nonzero;"/>
                    </g>
                    <g transform="matrix(29.0151,0,0,29.0151,999.94,517.427)">
                        <path d="M0.098,-0.604L0.06,-0.604L0.06,-0.136C0.06,-0.052 0.108,-0 0.198,-0L0.266,-0L0.266,-0.036L0.19,-0.036C0.134,-0.036 0.098,-0.072 0.098,-0.132L0.098,-0.438L0.266,-0.438L0.266,-0.474L0.098,-0.474L0.098,-0.604Z" style="fill-rule:nonzero;"/>
                    </g>
                    <g transform="matrix(29.0151,0,0,29.0151,1016.07,517.427)">
                        <path d="M0.496,-0L0.496,-0.237C0.496,-0.38 0.394,-0.484 0.265,-0.484C0.136,-0.484 0.034,-0.38 0.034,-0.237C0.034,-0.094 0.136,0.01 0.265,0.01C0.338,0.01 0.384,-0.026 0.413,-0.05L0.413,-0.095C0.372,-0.052 0.328,-0.026 0.265,-0.026C0.169,-0.026 0.074,-0.115 0.074,-0.237C0.074,-0.359 0.169,-0.448 0.265,-0.448C0.379,-0.448 0.458,-0.347 0.458,-0.237L0.458,-0L0.496,-0Z" style="fill-rule:nonzero;"/>
                    </g>
                    <g transform="matrix(29.0151,0,0,29.0151,1040.27,517.427)">
                        <path d="M0.106,-0L0.106,-0.348L0.264,-0.348C0.409,-0.348 0.47,-0.281 0.47,-0.15L0.47,-0L0.512,-0L0.512,-0.15C0.512,-0.306 0.422,-0.369 0.327,-0.376L0.327,-0.378C0.365,-0.386 0.397,-0.418 0.426,-0.482L0.526,-0.7L0.479,-0.7L0.412,-0.547C0.357,-0.422 0.324,-0.384 0.218,-0.384L0.106,-0.384L0.106,-0.7L0.064,-0.7L0.064,-0L0.106,-0Z" style="fill-rule:nonzero;"/>
                    </g>
                    <g transform="matrix(29.0151,0,0,29.0151,1056.4,517.427)">
                        <path d="M0.278,-0.448C0.394,-0.448 0.478,-0.347 0.478,-0.237C0.478,-0.127 0.394,-0.026 0.278,-0.026C0.162,-0.026 0.078,-0.127 0.078,-0.237C0.078,-0.347 0.162,-0.448 0.278,-0.448ZM0.278,-0.484C0.142,-0.484 0.038,-0.371 0.038,-0.237C0.038,-0.103 0.142,0.01 0.278,0.01C0.414,0.01 0.518,-0.103 0.518,-0.237C0.518,-0.371 0.414,-0.484 0.278,-0.484Z" style="fill-rule:nonzero;"/>
                    </g>
                    <g transform="matrix(29.0151,0,0,29.0151,1072.54,517.427)">
                        <path d="M0.496,-0L0.496,-0.237C0.496,-0.38 0.394,-0.484 0.265,-0.484C0.136,-0.484 0.034,-0.38 0.034,-0.237C0.034,-0.094 0.136,0.01 0.265,0.01C0.338,0.01 0.384,-0.026 0.413,-0.05L0.413,-0.095C0.372,-0.052 0.328,-0.026 0.265,-0.026C0.169,-0.026 0.074,-0.115 0.074,-0.237C0.074,-0.359 0.169,-0.448 0.265,-0.448C0.379,-0.448 0.458,-0.347 0.458,-0.237L0.458,-0L0.496,-0Z" style="fill-rule:nonzero;"/>
                    </g>
                    <g transform="matrix(29.0151,0,0,29.0151,1088.67,517.427)">
                        <rect x="0.092" y="-0.7" width="0.038" height="0.7" style="fill-rule:nonzero;"/>
                    </g>
                    <g transform="matrix(29.0151,0,0,29.0151,1095.11,517.427)">
                        <path d="M0.496,-0L0.496,-0.237C0.496,-0.38 0.394,-0.484 0.265,-0.484C0.136,-0.484 0.034,-0.38 0.034,-0.237C0.034,-0.094 0.136,0.01 0.265,0.01C0.338,0.01 0.384,-0.026 0.413,-0.05L0.413,-0.095C0.372,-0.052 0.328,-0.026 0.265,-0.026C0.169,-0.026 0.074,-0.115 0.074,-0.237C0.074,-0.359 0.169,-0.448 0.265,-0.448C0.379,-0.448 0.458,-0.347 0.458,-0.237L0.458,-0L0.496,-0Z" style="fill-rule:nonzero;"/>
                    </g>
                    <g transform="matrix(29.0151,0,0,29.0151,1111.24,517.427)">
                        <path d="M0.125,-0.138L0.125,-0.712L0.087,-0.712L0.087,-0.138L0.125,-0.138ZM0.068,-0.032C0.068,-0.011 0.085,0.006 0.106,0.006C0.127,0.006 0.144,-0.011 0.144,-0.032C0.144,-0.053 0.127,-0.07 0.106,-0.07C0.085,-0.07 0.068,-0.053 0.068,-0.032Z" style="fill-rule:nonzero;"/>
                    </g>
                </g>
            </g>
            <g transform="matrix(0.661165,0,0,0.473373,-403.485,7835)">
                <g transform="matrix(1,0,0,1,3331.42,-6537.56)">
                    <path d="M342.285,251.618C342.285,251.618 319.54,221.707 263.384,219.405C207.228,217.103 117.113,266.754 85.879,296.499C54.645,326.243 36.577,370.197 57.217,404.676C77.858,439.155 110.077,575.52 182.952,553.9C255.827,532.28 287.118,516.457 287.118,516.457C287.118,516.457 263.155,387.363 342.285,251.618Z" style="stroke:black;stroke-width:2.82px;"/>
                    <path d="M550.53,219.328C550.53,219.328 644.988,130.249 694.238,162.118C743.488,193.988 848.676,242.613 852.978,287.41C857.28,332.207 862.764,417.608 839.374,443.874C815.983,470.139 760.743,489.65 739.046,493.624C717.348,497.598 645.717,245.177 550.53,219.328Z"/>
                    <path d="M384.749,458.316C419.631,452.467 440.124,473.581 437.03,493.67C433.936,513.759 470.246,636.622 405.379,616.441C402.332,615.493 389.046,632.129 370.316,622.9C351.587,613.671 344.046,587.728 342.285,556.21C340.525,524.691 318.092,469.493 384.749,458.316Z"/>
                    <path d="M878.087,348.28L929.957,307.671L880.16,521.275C880.16,521.275 808.811,567.79 794.566,661.452C794.566,661.452 639.251,728.155 639.5,728.155C639.749,728.155 623.426,680.384 623.426,680.384C623.426,680.384 751.092,599.697 783.374,541.512C815.655,483.327 855.316,492.889 878.087,348.28Z"/>
                    <path d="M958.556,205.275C958.556,205.275 939.993,170.999 985.004,167.077C985.004,167.077 995.759,130.868 1032.12,143.056C1068.49,155.243 1165.44,163.743 1189,183.436C1212.57,203.129 1247.35,262.441 1226.11,296.967C1204.87,331.493 1153.06,373.43 1105.91,493.67L1137.18,353.566C1137.18,353.566 1235.5,303.108 1197.97,256.171C1170.46,221.776 1141.96,201.929 1105.29,195.209C1091.92,192.758 1077.46,192.053 1061.57,193.025C1002.1,196.66 1015.82,202.603 1002.93,205.207C990.04,207.811 964.621,215.098 958.556,205.275Z"/>
                    <path d="M1058.77,176.874L1145.45,177.488L1085.15,241.506L1060.23,235.257C1060.23,235.257 1134.93,189.647 1035.92,195.209C936.916,200.77 1058.77,176.874 1058.77,176.874Z" style="stroke:black;stroke-width:2.82px;"/>
                    <path d="M1110.18,195.744C1110.18,195.744 1074.45,228.212 1055.29,238.322C1036.13,248.431 977.812,292.7 988.67,304.641C988.67,304.641 1010.77,310.323 1021.86,298.65C1021.91,298.595 1067.34,294.911 1074.46,289.224C1081.57,283.538 1102.5,263.523 1110.7,268.148C1110.7,268.148 1109.8,278.237 1101.37,285.129C1092.94,292.021 1061.13,344.975 1061.13,344.975C1061.13,344.975 1034.45,370.161 1033.45,383.182C1033.45,383.182 1065.83,384.733 1078.6,362.265C1078.6,362.265 1104.72,351.46 1115.69,340.657C1126.65,329.855 1117.49,332.09 1135.3,321.959L1107.13,357.346C1107.13,357.346 1102.42,373.182 1102.42,373.107C1102.42,373.032 1180.75,324.195 1185.43,299.471C1185.43,299.471 1242.37,287.031 1199.12,236.239C1181.51,215.553 1157.31,191.286 1110.18,195.744Z" style="stroke:black;stroke-width:2.82px;"/>
                    <ellipse cx="314.488" cy="487.3" rx="14.885" ry="21.915"/>
                    <ellipse cx="519.814" cy="454.8" rx="24.131" ry="23.559"/>
                    <path d="M519.814,716.114C519.814,716.114 476.38,741.373 435.747,706.055C395.113,670.738 422.368,864.178 436.08,924.784C449.792,985.389 504.199,1103.67 658.841,1016.91C813.484,930.15 952.434,831.655 1003.61,815.01C1054.78,798.365 1053.3,787.942 1083.72,788.29C1114.15,788.639 1121.59,782.728 1125.59,771.321C1129.6,759.913 1131.05,742.033 1087.53,741.341C1087.53,741.341 1100.88,729.765 1115.21,728.395C1129.54,727.025 1145.44,703.744 1140.44,691.982C1135.44,680.22 1130.4,678.927 1130.4,678.927C1130.4,678.927 1147.02,637.528 1121.99,632.892C1096.95,628.255 1072.01,631.675 1072.01,631.675L1070.84,639.011L1087.53,640.857C1087.53,640.857 1081.72,650.599 1055.35,657.363C1028.98,664.128 1006.89,669.353 990.668,667.615C974.446,665.878 954.749,659.547 938.774,639.756C922.8,619.964 914.259,604.33 908.298,587.702C902.337,571.074 897.654,559.826 886.356,557.273C875.058,554.719 860.52,542.332 858.378,577.394C856.441,609.099 871.903,640.157 868.743,653.468C865.583,666.779 860.062,698.799 832.085,709.623C804.109,720.447 776.327,724.454 724.232,748.78C672.136,773.107 649.702,797.664 613.685,790.464C577.668,783.263 525.816,763.156 519.814,716.114Z"/>
                    <path d="M1026.33,813.625C1026.33,813.625 1109.73,826.301 1125.91,886.887C1142.1,947.473 1132.92,1020.12 1093.74,1094.39C1054.55,1168.67 1012,1269.62 976.597,1312.7C941.198,1355.78 920.983,1401.28 850.905,1381.67L885.546,1274.24C885.546,1274.24 1002.18,1263.48 1025.43,1155.41C1048.68,1047.34 1054.85,1007.21 979.147,981.238L1026.33,813.625Z"/>
                    <path d="M1008.77,1007.62C1022.44,1011.48 1027.81,1051.44 1024.77,1067.14C1021.72,1082.83 1017.8,1090.93 1008.68,1099.99C999.552,1109.05 996.359,1103.52 997.152,1115.51C997.944,1127.5 997.532,1216.29 987.334,1238.28C977.136,1260.27 937.838,1285.92 878.631,1294.78L939.69,1115.82C939.69,1115.82 892.831,1089.63 947.854,1094.62C971.702,1096.78 959.707,1079.16 959.707,1079.16C959.707,1079.16 950.183,1065.19 953.114,1058.35C953.114,1058.35 906.71,1041.48 960.142,1041.92L980.556,1042.83C980.556,1042.83 974.607,1032.83 987.334,1027.93C987.334,1027.93 943.708,1000.27 978.722,1002.17C1013.74,1004.08 995.522,1003.87 1008.77,1007.62Z" style="stroke:black;stroke-width:2.82px;"/>
                    <path d="M414.352,892.443C414.352,892.443 351.687,944.965 414.352,1099.99C477.018,1255.02 495.744,1240.64 505.178,1269.29C514.611,1297.94 544.797,1356.45 601.329,1373.03L652.325,1240.93C652.325,1240.93 738.183,1222.38 674.407,1197.42C640.763,1184.25 669.095,1180.01 676.399,1182.15C683.703,1184.3 772.579,1175.47 703.204,1148.43C647.286,1126.63 675.255,1122.63 695.744,1125.43C716.233,1128.23 744.879,1108.75 705.251,1099.99C665.622,1091.23 639.235,1101.91 632.808,1112.55C626.381,1123.19 629.199,1133.66 629.087,1137.99C628.976,1142.32 617.874,1151.29 613.752,1165.92C609.629,1180.55 586.245,1212.31 596.405,1165.06C605.397,1123.25 605.793,1104.39 647.034,1090.47L593.459,1059.51C593.459,1059.51 450.25,1130.07 414.352,892.443Z"/>
                </g>
                <g transform="matrix(3.08549,0,0,3.08549,513.456,-6023.04)">
                    <g transform="matrix(300,0,0,300,924.182,517.427)">
                        <path d="M0.03,0.321C0.036,0.327 0.052,0.33 0.079,0.329C0.092,0.328 0.105,0.328 0.116,0.328L0.148,0.328C0.161,0.325 0.167,0.318 0.168,0.306C0.169,0.294 0.162,0.286 0.147,0.282C0.132,0.279 0.125,0.269 0.127,0.253C0.129,0.237 0.13,0.223 0.13,0.21C0.129,0.197 0.129,0.183 0.129,0.168L0.128,-0.033L0.127,-0.143L0.127,-0.32C0.127,-0.349 0.127,-0.378 0.128,-0.407C0.128,-0.436 0.128,-0.464 0.129,-0.492C0.129,-0.519 0.129,-0.545 0.13,-0.568C0.13,-0.579 0.133,-0.585 0.139,-0.586C0.144,-0.587 0.149,-0.588 0.154,-0.588C0.159,-0.588 0.164,-0.588 0.169,-0.59C0.173,-0.591 0.176,-0.593 0.177,-0.596C0.18,-0.604 0.179,-0.613 0.173,-0.624C0.17,-0.631 0.165,-0.635 0.159,-0.638C0.153,-0.641 0.136,-0.642 0.109,-0.641L0.049,-0.641C0.044,-0.637 0.04,-0.632 0.037,-0.626C0.034,-0.619 0.033,-0.613 0.032,-0.607C0.031,-0.6 0.031,-0.595 0.032,-0.591C0.033,-0.586 0.035,-0.584 0.038,-0.585C0.042,-0.584 0.046,-0.583 0.05,-0.583C0.053,-0.582 0.057,-0.581 0.061,-0.58C0.066,-0.579 0.067,-0.567 0.064,-0.546C0.062,-0.525 0.061,-0.514 0.061,-0.513C0.062,-0.508 0.064,-0.499 0.065,-0.488C0.066,-0.476 0.066,-0.464 0.066,-0.451L0.066,-0.354C0.066,-0.349 0.066,-0.347 0.065,-0.346C0.065,-0.334 0.065,-0.316 0.066,-0.291C0.066,-0.266 0.066,-0.238 0.066,-0.207L0.066,-0.11C0.066,-0.076 0.066,-0.044 0.066,-0.014C0.065,0.016 0.065,0.043 0.065,0.067L0.065,0.12C0.065,0.152 0.065,0.178 0.064,0.197C0.063,0.216 0.064,0.233 0.065,0.247C0.066,0.257 0.065,0.264 0.064,0.269C0.063,0.274 0.06,0.277 0.055,0.279C0.053,0.28 0.05,0.282 0.047,0.284C0.043,0.285 0.04,0.288 0.037,0.291C0.034,0.294 0.031,0.299 0.03,0.304C0.028,0.309 0.028,0.314 0.03,0.321Z" style="fill-rule:nonzero;"/>
                    </g>
                    <g transform="matrix(300,0,0,300,977.882,517.427)">
                        <path d="M0.085,0.101C0.082,0.101 0.076,0.101 0.068,0.102C0.059,0.103 0.051,0.104 0.043,0.106C0.034,0.108 0.027,0.111 0.02,0.114C0.013,0.117 0.01,0.121 0.01,0.126L0.01,0.262C0.01,0.269 0.014,0.275 0.022,0.281C0.03,0.286 0.039,0.291 0.05,0.295C0.06,0.299 0.07,0.302 0.081,0.305C0.092,0.307 0.1,0.308 0.105,0.308C0.135,0.308 0.163,0.306 0.188,0.301C0.213,0.296 0.234,0.287 0.253,0.275C0.272,0.263 0.287,0.247 0.299,0.226C0.311,0.205 0.319,0.179 0.322,0.148L0.322,0.115C0.322,0.099 0.322,0.082 0.323,0.065C0.323,0.047 0.323,0.03 0.323,0.014L0.323,-0.019C0.323,-0.088 0.322,-0.156 0.321,-0.225C0.319,-0.293 0.318,-0.361 0.318,-0.43L0.318,-0.49L0.322,-0.494C0.323,-0.493 0.326,-0.491 0.33,-0.489L0.356,-0.474C0.36,-0.471 0.363,-0.47 0.365,-0.469C0.372,-0.465 0.385,-0.459 0.404,-0.45C0.423,-0.44 0.443,-0.431 0.464,-0.421C0.485,-0.41 0.505,-0.4 0.524,-0.391C0.543,-0.382 0.556,-0.375 0.563,-0.372C0.578,-0.36 0.594,-0.349 0.61,-0.339C0.625,-0.329 0.641,-0.317 0.656,-0.304C0.671,-0.291 0.685,-0.276 0.696,-0.259C0.707,-0.242 0.716,-0.225 0.723,-0.206C0.73,-0.187 0.736,-0.168 0.74,-0.148C0.743,-0.128 0.745,-0.108 0.745,-0.089C0.745,-0.08 0.744,-0.073 0.741,-0.068C0.737,-0.062 0.736,-0.055 0.736,-0.047C0.736,-0.038 0.739,-0.032 0.744,-0.028C0.748,-0.023 0.755,-0.02 0.763,-0.019C0.77,-0.018 0.778,-0.017 0.786,-0.017L0.825,-0.017C0.828,-0.019 0.831,-0.022 0.834,-0.026C0.836,-0.03 0.837,-0.034 0.837,-0.038C0.837,-0.046 0.835,-0.052 0.832,-0.056C0.828,-0.059 0.824,-0.063 0.82,-0.067C0.816,-0.071 0.812,-0.076 0.809,-0.081C0.805,-0.086 0.803,-0.095 0.803,-0.106C0.803,-0.124 0.804,-0.144 0.807,-0.167C0.81,-0.189 0.811,-0.209 0.812,-0.228C0.812,-0.23 0.812,-0.235 0.813,-0.243L0.816,-0.293C0.816,-0.301 0.816,-0.306 0.816,-0.308C0.817,-0.356 0.818,-0.404 0.817,-0.452C0.816,-0.5 0.819,-0.548 0.825,-0.595C0.832,-0.6 0.837,-0.605 0.841,-0.61C0.844,-0.615 0.846,-0.621 0.846,-0.63C0.846,-0.637 0.844,-0.642 0.841,-0.645C0.838,-0.648 0.834,-0.65 0.829,-0.651C0.824,-0.652 0.819,-0.653 0.814,-0.653C0.809,-0.653 0.804,-0.653 0.799,-0.654C0.797,-0.654 0.793,-0.655 0.788,-0.656C0.782,-0.657 0.776,-0.658 0.77,-0.659C0.763,-0.66 0.757,-0.66 0.752,-0.661C0.746,-0.662 0.742,-0.662 0.74,-0.663C0.733,-0.662 0.727,-0.661 0.722,-0.658C0.717,-0.655 0.715,-0.649 0.715,-0.642C0.715,-0.629 0.72,-0.62 0.731,-0.615C0.741,-0.609 0.751,-0.604 0.761,-0.6C0.762,-0.598 0.764,-0.594 0.765,-0.589C0.765,-0.584 0.766,-0.58 0.766,-0.578C0.766,-0.573 0.766,-0.567 0.766,-0.559C0.765,-0.551 0.764,-0.543 0.764,-0.534C0.763,-0.525 0.761,-0.517 0.761,-0.508C0.76,-0.499 0.758,-0.492 0.757,-0.486L0.757,-0.296C0.757,-0.295 0.756,-0.295 0.756,-0.294C0.755,-0.293 0.754,-0.292 0.753,-0.291L0.751,-0.291C0.746,-0.291 0.741,-0.293 0.737,-0.298C0.732,-0.302 0.727,-0.307 0.722,-0.313C0.717,-0.318 0.713,-0.324 0.709,-0.33C0.704,-0.335 0.701,-0.339 0.698,-0.342C0.683,-0.355 0.667,-0.368 0.651,-0.38C0.634,-0.391 0.618,-0.403 0.601,-0.414C0.582,-0.427 0.562,-0.438 0.542,-0.448C0.521,-0.457 0.501,-0.467 0.48,-0.476C0.459,-0.485 0.439,-0.495 0.419,-0.505C0.398,-0.515 0.379,-0.527 0.36,-0.54C0.352,-0.546 0.344,-0.557 0.337,-0.572C0.329,-0.587 0.322,-0.602 0.316,-0.617C0.31,-0.632 0.305,-0.646 0.3,-0.658C0.295,-0.67 0.292,-0.676 0.289,-0.676L0.259,-0.676C0.255,-0.676 0.252,-0.673 0.25,-0.667C0.247,-0.66 0.246,-0.655 0.246,-0.652C0.246,-0.649 0.247,-0.645 0.248,-0.638C0.249,-0.631 0.25,-0.623 0.251,-0.615C0.252,-0.607 0.254,-0.6 0.255,-0.593C0.256,-0.586 0.258,-0.581 0.259,-0.578C0.265,-0.44 0.268,-0.301 0.268,-0.162L0.268,-0.145C0.268,-0.137 0.268,-0.132 0.267,-0.131C0.267,-0.12 0.267,-0.102 0.267,-0.076C0.266,-0.049 0.266,-0.021 0.266,0.009C0.265,0.038 0.265,0.066 0.264,0.093C0.263,0.119 0.263,0.137 0.263,0.148C0.261,0.167 0.256,0.184 0.247,0.197C0.238,0.21 0.228,0.22 0.215,0.228C0.202,0.235 0.188,0.241 0.172,0.244C0.155,0.247 0.138,0.249 0.12,0.249L0.09,0.249C0.075,0.243 0.064,0.235 0.058,0.225C0.051,0.214 0.048,0.201 0.048,0.186L0.048,0.164C0.049,0.163 0.051,0.161 0.054,0.159C0.057,0.157 0.059,0.156 0.061,0.156L0.145,0.156C0.15,0.156 0.153,0.153 0.155,0.147C0.157,0.14 0.158,0.135 0.158,0.132C0.158,0.125 0.155,0.12 0.149,0.116C0.143,0.111 0.136,0.108 0.128,0.106C0.12,0.104 0.112,0.103 0.104,0.102C0.095,0.101 0.089,0.101 0.085,0.101Z" style="fill-rule:nonzero;"/>
                    </g>
                    <g transform="matrix(300,0,0,300,1234.68,517.427)">
                        <path d="M0.199,-0.349L0.204,-0.349C0.207,-0.349 0.211,-0.349 0.216,-0.348C0.22,-0.347 0.224,-0.347 0.229,-0.347C0.234,-0.346 0.238,-0.346 0.241,-0.345C0.281,-0.339 0.316,-0.324 0.346,-0.3C0.376,-0.275 0.402,-0.246 0.425,-0.213C0.447,-0.179 0.466,-0.143 0.482,-0.106C0.498,-0.068 0.512,-0.033 0.523,-0.001C0.528,0.016 0.532,0.033 0.534,0.05C0.535,0.067 0.539,0.083 0.544,0.1C0.555,0.137 0.566,0.169 0.579,0.197C0.592,0.225 0.608,0.249 0.627,0.268C0.646,0.287 0.669,0.302 0.697,0.312C0.725,0.322 0.76,0.327 0.802,0.327C0.819,0.327 0.837,0.326 0.856,0.323C0.875,0.32 0.893,0.314 0.91,0.306C0.927,0.298 0.941,0.287 0.952,0.274C0.963,0.26 0.968,0.243 0.968,0.222C0.968,0.209 0.965,0.196 0.959,0.185C0.953,0.174 0.945,0.164 0.936,0.156C0.926,0.147 0.915,0.141 0.903,0.136C0.891,0.131 0.879,0.129 0.866,0.129C0.858,0.129 0.849,0.13 0.84,0.132C0.831,0.133 0.822,0.136 0.814,0.14C0.806,0.144 0.8,0.149 0.795,0.156C0.79,0.162 0.787,0.17 0.787,0.18C0.787,0.191 0.79,0.201 0.797,0.21C0.804,0.218 0.814,0.222 0.827,0.222C0.838,0.222 0.846,0.219 0.85,0.214C0.854,0.208 0.858,0.199 0.863,0.188L0.873,0.188C0.884,0.188 0.892,0.192 0.899,0.2C0.906,0.207 0.909,0.216 0.909,0.227C0.909,0.238 0.904,0.246 0.894,0.252C0.883,0.257 0.871,0.261 0.858,0.264C0.844,0.267 0.83,0.268 0.818,0.269C0.805,0.269 0.795,0.269 0.789,0.269L0.78,0.269L0.754,0.268L0.745,0.268C0.722,0.263 0.703,0.255 0.688,0.244C0.672,0.233 0.659,0.219 0.648,0.204C0.637,0.189 0.629,0.172 0.622,0.153C0.615,0.134 0.61,0.115 0.605,0.095C0.6,0.075 0.596,0.055 0.592,0.035C0.587,0.015 0.582,-0.004 0.577,-0.022C0.568,-0.05 0.558,-0.08 0.545,-0.111C0.532,-0.141 0.516,-0.172 0.499,-0.201C0.482,-0.23 0.462,-0.258 0.441,-0.284C0.419,-0.309 0.396,-0.331 0.371,-0.349C0.359,-0.358 0.346,-0.366 0.334,-0.373C0.321,-0.379 0.308,-0.387 0.296,-0.396L0.3,-0.4C0.32,-0.411 0.339,-0.422 0.358,-0.431C0.377,-0.44 0.395,-0.45 0.414,-0.46C0.432,-0.469 0.45,-0.479 0.469,-0.49C0.488,-0.501 0.507,-0.513 0.527,-0.526C0.541,-0.535 0.555,-0.546 0.569,-0.557C0.582,-0.568 0.596,-0.578 0.611,-0.585C0.618,-0.588 0.626,-0.591 0.634,-0.592C0.642,-0.593 0.65,-0.596 0.657,-0.601C0.661,-0.604 0.664,-0.608 0.667,-0.615C0.669,-0.621 0.67,-0.626 0.67,-0.631C0.67,-0.635 0.668,-0.64 0.665,-0.645C0.662,-0.65 0.658,-0.652 0.653,-0.652L0.573,-0.652C0.567,-0.652 0.563,-0.65 0.56,-0.647C0.557,-0.644 0.554,-0.64 0.552,-0.635C0.55,-0.63 0.548,-0.626 0.547,-0.621C0.545,-0.616 0.542,-0.613 0.539,-0.61C0.536,-0.608 0.533,-0.605 0.529,-0.602C0.524,-0.598 0.52,-0.594 0.516,-0.591C0.511,-0.587 0.507,-0.584 0.504,-0.581C0.5,-0.578 0.498,-0.577 0.497,-0.576C0.453,-0.545 0.407,-0.516 0.361,-0.491C0.313,-0.465 0.264,-0.444 0.212,-0.429L0.207,-0.429C0.203,-0.429 0.2,-0.43 0.199,-0.433L0.199,-0.461C0.199,-0.481 0.2,-0.501 0.202,-0.521C0.203,-0.54 0.204,-0.56 0.204,-0.58L0.204,-0.591L0.203,-0.624L0.203,-0.635C0.201,-0.642 0.197,-0.647 0.191,-0.652L0.136,-0.652C0.127,-0.652 0.116,-0.653 0.102,-0.654C0.088,-0.655 0.074,-0.654 0.061,-0.653C0.047,-0.652 0.035,-0.648 0.025,-0.643C0.015,-0.637 0.01,-0.627 0.01,-0.614C0.01,-0.601 0.013,-0.588 0.018,-0.577C0.023,-0.565 0.032,-0.559 0.047,-0.559C0.057,-0.559 0.064,-0.563 0.067,-0.57C0.07,-0.577 0.074,-0.584 0.081,-0.589C0.084,-0.59 0.089,-0.591 0.098,-0.592C0.107,-0.592 0.112,-0.593 0.115,-0.593L0.122,-0.593C0.126,-0.593 0.13,-0.592 0.134,-0.591C0.137,-0.589 0.139,-0.585 0.14,-0.58L0.14,-0.555C0.14,-0.488 0.139,-0.422 0.137,-0.356C0.135,-0.289 0.133,-0.223 0.132,-0.156C0.132,-0.153 0.132,-0.147 0.132,-0.138C0.131,-0.129 0.131,-0.12 0.131,-0.11L0.128,-0.064C0.125,-0.062 0.121,-0.058 0.115,-0.052C0.108,-0.045 0.104,-0.041 0.102,-0.038C0.101,-0.037 0.1,-0.035 0.1,-0.033C0.098,-0.029 0.098,-0.027 0.098,-0.026C0.099,-0.015 0.103,-0.008 0.111,-0.005C0.117,-0.002 0.125,-0 0.134,-0C0.15,-0 0.162,-0.003 0.17,-0.008C0.177,-0.012 0.183,-0.019 0.186,-0.028C0.189,-0.037 0.19,-0.047 0.19,-0.058C0.19,-0.069 0.19,-0.081 0.191,-0.093C0.191,-0.095 0.191,-0.099 0.192,-0.107L0.195,-0.152C0.195,-0.159 0.195,-0.163 0.195,-0.165L0.195,-0.341L0.199,-0.349Z" style="fill-rule:nonzero;"/>
                    </g>
                </g>
            </g>
            <g transform="matrix(0.543068,0,0,0.388819,-1411.23,8528.78)">
                <g transform="matrix(1.61243,0,0,1.61243,5892.43,-6661.13)">
                    <path d="M342.285,251.618C342.285,251.618 319.54,221.707 263.384,219.405C207.228,217.103 117.113,266.754 85.879,296.499C54.645,326.243 36.577,370.197 57.217,404.676C77.858,439.155 110.077,575.52 182.952,553.9C255.827,532.28 287.118,516.457 287.118,516.457C287.118,516.457 263.155,387.363 342.285,251.618Z" style="stroke:black;stroke-width:2.13px;"/>
                    <path d="M550.53,219.328C550.53,219.328 644.988,130.249 694.238,162.118C743.488,193.988 848.676,242.613 852.978,287.41C857.28,332.207 862.764,417.608 839.374,443.874C815.983,470.139 760.743,489.65 739.046,493.624C717.348,497.598 645.717,245.177 550.53,219.328Z"/>
                    <path d="M384.749,458.316C419.631,452.467 440.124,473.581 437.03,493.67C433.936,513.759 470.246,636.622 405.379,616.441C402.332,615.493 389.046,632.129 370.316,622.9C351.587,613.671 344.046,587.728 342.285,556.21C340.525,524.691 318.092,469.493 384.749,458.316Z"/>
                    <path d="M878.087,348.28L929.957,307.671L880.16,521.275C880.16,521.275 808.811,567.79 794.566,661.452C794.566,661.452 639.251,728.155 639.5,728.155C639.749,728.155 623.426,680.384 623.426,680.384C623.426,680.384 751.092,599.697 783.374,541.512C815.655,483.327 855.316,492.889 878.087,348.28Z"/>
                    <path d="M958.556,205.275C958.556,205.275 939.993,170.999 985.004,167.077C985.004,167.077 995.759,130.868 1032.12,143.056C1068.49,155.243 1165.44,163.743 1189,183.436C1212.57,203.129 1247.35,262.441 1226.11,296.967C1204.87,331.493 1153.06,373.43 1105.91,493.67L1137.18,353.566C1137.18,353.566 1235.5,303.108 1197.97,256.171C1170.46,221.776 1141.96,201.929 1105.29,195.209C1091.92,192.758 1077.46,192.053 1061.57,193.025C1002.1,196.66 1015.82,202.603 1002.93,205.207C990.04,207.811 964.621,215.098 958.556,205.275Z"/>
                    <path d="M1058.77,176.874L1145.45,177.488L1085.15,241.506L1060.23,235.257C1060.23,235.257 1134.93,189.647 1035.92,195.209C936.916,200.77 1058.77,176.874 1058.77,176.874Z" style="stroke:black;stroke-width:2.13px;"/>
                    <path d="M1110.18,195.744C1110.18,195.744 1074.45,228.212 1055.29,238.322C1036.13,248.431 977.812,292.7 988.67,304.641C988.67,304.641 1010.77,310.323 1021.86,298.65C1021.91,298.595 1067.34,294.911 1074.46,289.224C1081.57,283.538 1102.5,263.523 1110.7,268.148C1110.7,268.148 1109.8,278.237 1101.37,285.129C1092.94,292.021 1061.13,344.975 1061.13,344.975C1061.13,344.975 1034.45,370.161 1033.45,383.182C1033.45,383.182 1065.83,384.733 1078.6,362.265C1078.6,362.265 1104.72,351.46 1115.69,340.657C1126.65,329.855 1117.49,332.09 1135.3,321.959L1107.13,357.346C1107.13,357.346 1102.42,373.182 1102.42,373.107C1102.42,373.032 1180.75,324.195 1185.43,299.471C1185.43,299.471 1242.37,287.031 1199.12,236.239C1181.51,215.553 1157.31,191.286 1110.18,195.744Z" style="stroke:black;stroke-width:2.13px;"/>
                    <ellipse cx="314.488" cy="487.3" rx="14.885" ry="21.915"/>
                    <ellipse cx="519.814" cy="454.8" rx="24.131" ry="23.559"/>
                    <path d="M519.814,716.114C519.814,716.114 476.38,741.373 435.747,706.055C395.113,670.738 422.368,864.178 436.08,924.784C449.792,985.389 504.199,1103.67 658.841,1016.91C813.484,930.15 952.434,831.655 1003.61,815.01C1054.78,798.365 1053.3,787.942 1083.72,788.29C1114.15,788.639 1121.59,782.728 1125.59,771.321C1129.6,759.913 1131.05,742.033 1087.53,741.341C1087.53,741.341 1100.88,729.765 1115.21,728.395C1129.54,727.025 1145.44,703.744 1140.44,691.982C1135.44,680.22 1130.4,678.927 1130.4,678.927C1130.4,678.927 1147.02,637.528 1121.99,632.892C1096.95,628.255 1072.01,631.675 1072.01,631.675L1070.84,639.011L1087.53,640.857C1087.53,640.857 1081.72,650.599 1055.35,657.363C1028.98,664.128 1006.89,669.353 990.668,667.615C974.446,665.878 954.749,659.547 938.774,639.756C922.8,619.964 914.259,604.33 908.298,587.702C902.337,571.074 897.654,559.826 886.356,557.273C875.058,554.719 860.52,542.332 858.378,577.394C856.441,609.099 871.903,640.157 868.743,653.468C865.583,666.779 860.062,698.799 832.085,709.623C804.109,720.447 776.327,724.454 724.232,748.78C672.136,773.107 649.702,797.664 613.685,790.464C577.668,783.263 525.816,763.156 519.814,716.114Z"/>
                    <path d="M1026.33,813.625C1026.33,813.625 1109.73,826.301 1125.91,886.887C1142.1,947.473 1132.92,1020.12 1093.74,1094.39C1054.55,1168.67 1012,1269.62 976.597,1312.7C941.198,1355.78 920.983,1401.28 850.905,1381.67L885.546,1274.24C885.546,1274.24 1002.18,1263.48 1025.43,1155.41C1048.68,1047.34 1054.85,1007.21 979.147,981.238L1026.33,813.625Z"/>
                    <path d="M1008.77,1007.62C1022.44,1011.48 1027.81,1051.44 1024.77,1067.14C1021.72,1082.83 1017.8,1090.93 1008.68,1099.99C999.552,1109.05 996.359,1103.52 997.152,1115.51C997.944,1127.5 997.532,1216.29 987.334,1238.28C977.136,1260.27 937.838,1285.92 878.631,1294.78L939.69,1115.82C939.69,1115.82 892.831,1089.63 947.854,1094.62C971.702,1096.78 959.707,1079.16 959.707,1079.16C959.707,1079.16 950.183,1065.19 953.114,1058.35C953.114,1058.35 906.71,1041.48 960.142,1041.92L980.556,1042.83C980.556,1042.83 974.607,1032.83 987.334,1027.93C987.334,1027.93 943.708,1000.27 978.722,1002.17C1013.74,1004.08 995.522,1003.87 1008.77,1007.62Z" style="stroke:black;stroke-width:2.13px;"/>
                    <path d="M414.352,892.443C414.352,892.443 351.687,944.965 414.352,1099.99C477.018,1255.02 495.744,1240.64 505.178,1269.29C514.611,1297.94 544.797,1356.45 601.329,1373.03L652.325,1240.93C652.325,1240.93 738.183,1222.38 674.407,1197.42C640.763,1184.25 669.095,1180.01 676.399,1182.15C683.703,1184.3 772.579,1175.47 703.204,1148.43C647.286,1126.63 675.255,1122.63 695.744,1125.43C716.233,1128.23 744.879,1108.75 705.251,1099.99C665.622,1091.23 639.235,1101.91 632.808,1112.55C626.381,1123.19 629.199,1133.66 629.087,1137.99C628.976,1142.32 617.874,1151.29 613.752,1165.92C609.629,1180.55 586.245,1212.31 596.405,1165.06C605.397,1123.25 605.793,1104.39 647.034,1090.47L593.459,1059.51C593.459,1059.51 450.25,1130.07 414.352,892.443Z"/>
                </g>
                <g transform="matrix(3.08549,0,0,3.08549,3104.1,-5270.4)">
                    <g transform="matrix(300,0,0,300,924.182,517.427)">
                        <path d="M0.391,-0C0.396,-0 0.399,-0.004 0.399,-0.009C0.399,-0.014 0.397,-0.017 0.391,-0.018C0.377,-0.019 0.357,-0.02 0.342,-0.021C0.31,-0.024 0.31,-0.021 0.31,-0.389C0.31,-0.702 0.312,-0.702 0.342,-0.704C0.352,-0.705 0.375,-0.706 0.387,-0.706C0.392,-0.706 0.395,-0.71 0.395,-0.715C0.395,-0.719 0.393,-0.724 0.387,-0.724C0.321,-0.724 0.276,-0.72 0.205,-0.72C0.136,-0.72 0.092,-0.724 0.028,-0.724C0.023,-0.724 0.02,-0.72 0.02,-0.715C0.02,-0.71 0.022,-0.706 0.028,-0.706C0.04,-0.706 0.063,-0.705 0.073,-0.704C0.105,-0.702 0.105,-0.703 0.105,-0.389C0.105,-0.021 0.105,-0.024 0.073,-0.021C0.059,-0.02 0.038,-0.018 0.024,-0.018C0.019,-0.018 0.016,-0.014 0.016,-0.009C0.016,-0.004 0.018,-0 0.024,-0C0.091,-0 0.136,-0.004 0.208,-0.004C0.279,-0.004 0.325,-0 0.391,-0Z" style="fill-rule:nonzero;"/>
                    </g>
                    <g transform="matrix(300,0,0,300,1048.68,517.427)">
                        <path d="M0.719,0.01C0.728,0.01 0.733,-0.003 0.733,-0.029C0.735,-0.122 0.735,-0.201 0.735,-0.28C0.744,-0.605 0.753,-0.654 0.774,-0.697C0.784,-0.699 0.81,-0.706 0.827,-0.706C0.833,-0.706 0.836,-0.71 0.836,-0.715C0.836,-0.72 0.833,-0.724 0.827,-0.724C0.79,-0.724 0.77,-0.721 0.733,-0.721C0.693,-0.721 0.67,-0.724 0.63,-0.724C0.624,-0.724 0.621,-0.719 0.621,-0.714C0.621,-0.709 0.623,-0.707 0.63,-0.706C0.642,-0.705 0.68,-0.7 0.687,-0.699C0.707,-0.664 0.711,-0.633 0.711,-0.348L0.711,-0.275C0.588,-0.401 0.383,-0.615 0.293,-0.724C0.291,-0.726 0.287,-0.728 0.278,-0.728C0.259,-0.728 0.209,-0.721 0.122,-0.721C0.088,-0.721 0.054,-0.722 0.016,-0.724C0.011,-0.724 0.008,-0.72 0.008,-0.715C0.008,-0.71 0.01,-0.706 0.016,-0.706C0.049,-0.707 0.063,-0.683 0.118,-0.615L0.118,-0.459C0.118,-0.145 0.099,-0.05 0.081,-0.024C0.071,-0.022 0.043,-0.018 0.022,-0.018C0.016,-0.018 0.013,-0.014 0.013,-0.009C0.013,-0.004 0.016,-0 0.022,-0C0.063,-0 0.087,-0.003 0.128,-0.003C0.171,-0.003 0.196,-0 0.239,-0C0.245,-0 0.249,-0.004 0.249,-0.009C0.249,-0.013 0.246,-0.017 0.239,-0.018C0.227,-0.019 0.189,-0.021 0.182,-0.022C0.157,-0.026 0.143,-0.268 0.143,-0.554L0.143,-0.588L0.682,-0.016C0.699,0.002 0.708,0.01 0.719,0.01Z" style="fill-rule:nonzero;"/>
                    </g>
                    <g transform="matrix(300,0,0,300,1298.28,517.427)">
                        <path d="M0.297,-0.455C0.297,-0.701 0.3,-0.702 0.337,-0.705C0.345,-0.706 0.361,-0.706 0.369,-0.706C0.374,-0.706 0.379,-0.709 0.379,-0.715C0.379,-0.72 0.375,-0.724 0.369,-0.724C0.304,-0.723 0.267,-0.72 0.202,-0.72C0.136,-0.72 0.099,-0.723 0.033,-0.724C0.028,-0.724 0.025,-0.72 0.025,-0.715C0.025,-0.71 0.027,-0.707 0.033,-0.706C0.045,-0.705 0.055,-0.705 0.065,-0.705C0.097,-0.704 0.096,-0.705 0.097,-0.389C0.098,-0.019 0.096,-0.022 0.064,-0.02C0.05,-0.019 0.045,-0.019 0.029,-0.018C0.024,-0.018 0.021,-0.014 0.021,-0.009C0.021,-0.004 0.023,-0 0.029,-0C0.096,-0 0.133,-0.004 0.2,-0.004C0.263,-0.004 0.298,-0 0.361,-0C0.367,-0 0.371,-0.004 0.371,-0.009C0.371,-0.014 0.368,-0.018 0.361,-0.018C0.353,-0.018 0.349,-0.018 0.341,-0.019C0.297,-0.022 0.297,-0.02 0.297,-0.242L0.297,-0.289L0.342,-0.333L0.495,-0.08C0.512,-0.049 0.52,-0.035 0.52,-0.028C0.52,-0.022 0.513,-0.02 0.502,-0.019C0.491,-0.018 0.486,-0.017 0.479,-0.016C0.472,-0.015 0.469,-0.011 0.47,-0.006C0.471,-0.001 0.474,0.002 0.479,0.002C0.525,-0.001 0.619,-0.003 0.644,-0.003C0.714,-0.003 0.754,-0 0.824,-0C0.83,-0 0.832,-0.004 0.832,-0.009C0.832,-0.013 0.829,-0.018 0.824,-0.018C0.764,-0.023 0.732,-0.08 0.598,-0.299C0.559,-0.364 0.488,-0.474 0.488,-0.474L0.639,-0.614C0.694,-0.665 0.744,-0.706 0.807,-0.706C0.813,-0.706 0.815,-0.71 0.815,-0.715C0.815,-0.719 0.812,-0.724 0.807,-0.724C0.756,-0.724 0.726,-0.72 0.675,-0.72C0.634,-0.72 0.611,-0.724 0.57,-0.724C0.564,-0.724 0.56,-0.72 0.56,-0.715C0.56,-0.709 0.565,-0.706 0.57,-0.706C0.586,-0.706 0.601,-0.698 0.612,-0.686C0.605,-0.632 0.51,-0.544 0.436,-0.463C0.385,-0.407 0.346,-0.371 0.297,-0.326L0.297,-0.455Z" style="fill-rule:nonzero;"/>
                    </g>
                    <g transform="matrix(300,0,0,300,1541.28,517.427)">
                        <path d="M0.143,0.007C0.195,0.007 0.222,-0.03 0.222,-0.076C0.222,-0.125 0.187,-0.156 0.143,-0.156C0.099,-0.156 0.061,-0.127 0.061,-0.076C0.061,-0.032 0.085,0.007 0.143,0.007ZM0.09,-0.435C0.107,-0.385 0.122,-0.319 0.122,-0.243L0.122,-0.23C0.122,-0.198 0.127,-0.191 0.144,-0.191C0.161,-0.191 0.166,-0.199 0.166,-0.229L0.166,-0.243C0.166,-0.333 0.179,-0.383 0.195,-0.433C0.207,-0.475 0.223,-0.518 0.227,-0.592C0.229,-0.64 0.194,-0.687 0.14,-0.687C0.08,-0.687 0.046,-0.639 0.05,-0.59C0.056,-0.522 0.074,-0.48 0.09,-0.435Z" style="fill-rule:nonzero;"/>
                    </g>
                </g>
            </g>
            <g transform="matrix(1.86373,0,0,1.33437,-8680.66,3098.91)">
                <g transform="matrix(1.72324,0,0,1.72324,5320.2,2035.52)">
                    <g transform="matrix(300,0,0,300,924.182,517.427)">
                        <path d="M0.391,-0C0.396,-0 0.399,-0.004 0.399,-0.009C0.399,-0.014 0.397,-0.017 0.391,-0.018C0.377,-0.019 0.357,-0.02 0.342,-0.021C0.31,-0.024 0.31,-0.021 0.31,-0.389C0.31,-0.702 0.312,-0.702 0.342,-0.704C0.352,-0.705 0.375,-0.706 0.387,-0.706C0.392,-0.706 0.395,-0.71 0.395,-0.715C0.395,-0.719 0.393,-0.724 0.387,-0.724C0.321,-0.724 0.276,-0.72 0.205,-0.72C0.136,-0.72 0.092,-0.724 0.028,-0.724C0.023,-0.724 0.02,-0.72 0.02,-0.715C0.02,-0.71 0.022,-0.706 0.028,-0.706C0.04,-0.706 0.063,-0.705 0.073,-0.704C0.105,-0.702 0.105,-0.703 0.105,-0.389C0.105,-0.021 0.105,-0.024 0.073,-0.021C0.059,-0.02 0.038,-0.018 0.024,-0.018C0.019,-0.018 0.016,-0.014 0.016,-0.009C0.016,-0.004 0.018,-0 0.024,-0C0.091,-0 0.136,-0.004 0.208,-0.004C0.279,-0.004 0.325,-0 0.391,-0Z" style="fill-rule:nonzero;"/>
                    </g>
                    <g transform="matrix(300,0,0,300,1048.68,517.427)">
                        <path d="M0.719,0.01C0.728,0.01 0.733,-0.003 0.733,-0.029C0.735,-0.122 0.735,-0.201 0.735,-0.28C0.744,-0.605 0.753,-0.654 0.774,-0.697C0.784,-0.699 0.81,-0.706 0.827,-0.706C0.833,-0.706 0.836,-0.71 0.836,-0.715C0.836,-0.72 0.833,-0.724 0.827,-0.724C0.79,-0.724 0.77,-0.721 0.733,-0.721C0.693,-0.721 0.67,-0.724 0.63,-0.724C0.624,-0.724 0.621,-0.719 0.621,-0.714C0.621,-0.709 0.623,-0.707 0.63,-0.706C0.642,-0.705 0.68,-0.7 0.687,-0.699C0.707,-0.664 0.711,-0.633 0.711,-0.348L0.711,-0.275C0.588,-0.401 0.383,-0.615 0.293,-0.724C0.291,-0.726 0.287,-0.728 0.278,-0.728C0.259,-0.728 0.209,-0.721 0.122,-0.721C0.088,-0.721 0.054,-0.722 0.016,-0.724C0.011,-0.724 0.008,-0.72 0.008,-0.715C0.008,-0.71 0.01,-0.706 0.016,-0.706C0.049,-0.707 0.063,-0.683 0.118,-0.615L0.118,-0.459C0.118,-0.145 0.099,-0.05 0.081,-0.024C0.071,-0.022 0.043,-0.018 0.022,-0.018C0.016,-0.018 0.013,-0.014 0.013,-0.009C0.013,-0.004 0.016,-0 0.022,-0C0.063,-0 0.087,-0.003 0.128,-0.003C0.171,-0.003 0.196,-0 0.239,-0C0.245,-0 0.249,-0.004 0.249,-0.009C0.249,-0.013 0.246,-0.017 0.239,-0.018C0.227,-0.019 0.189,-0.021 0.182,-0.022C0.157,-0.026 0.143,-0.268 0.143,-0.554L0.143,-0.588L0.682,-0.016C0.699,0.002 0.708,0.01 0.719,0.01Z" style="fill-rule:nonzero;"/>
                    </g>
                    <g transform="matrix(300,0,0,300,1298.28,517.427)">
                        <path d="M0.297,-0.455C0.297,-0.701 0.3,-0.702 0.337,-0.705C0.345,-0.706 0.361,-0.706 0.369,-0.706C0.374,-0.706 0.379,-0.709 0.379,-0.715C0.379,-0.72 0.375,-0.724 0.369,-0.724C0.304,-0.723 0.267,-0.72 0.202,-0.72C0.136,-0.72 0.099,-0.723 0.033,-0.724C0.028,-0.724 0.025,-0.72 0.025,-0.715C0.025,-0.71 0.027,-0.707 0.033,-0.706C0.045,-0.705 0.055,-0.705 0.065,-0.705C0.097,-0.704 0.096,-0.705 0.097,-0.389C0.098,-0.019 0.096,-0.022 0.064,-0.02C0.05,-0.019 0.045,-0.019 0.029,-0.018C0.024,-0.018 0.021,-0.014 0.021,-0.009C0.021,-0.004 0.023,-0 0.029,-0C0.096,-0 0.133,-0.004 0.2,-0.004C0.263,-0.004 0.298,-0 0.361,-0C0.367,-0 0.371,-0.004 0.371,-0.009C0.371,-0.014 0.368,-0.018 0.361,-0.018C0.353,-0.018 0.349,-0.018 0.341,-0.019C0.297,-0.022 0.297,-0.02 0.297,-0.242L0.297,-0.289L0.342,-0.333L0.495,-0.08C0.512,-0.049 0.52,-0.035 0.52,-0.028C0.52,-0.022 0.513,-0.02 0.502,-0.019C0.491,-0.018 0.486,-0.017 0.479,-0.016C0.472,-0.015 0.469,-0.011 0.47,-0.006C0.471,-0.001 0.474,0.002 0.479,0.002C0.525,-0.001 0.619,-0.003 0.644,-0.003C0.714,-0.003 0.754,-0 0.824,-0C0.83,-0 0.832,-0.004 0.832,-0.009C0.832,-0.013 0.829,-0.018 0.824,-0.018C0.764,-0.023 0.732,-0.08 0.598,-0.299C0.559,-0.364 0.488,-0.474 0.488,-0.474L0.639,-0.614C0.694,-0.665 0.744,-0.706 0.807,-0.706C0.813,-0.706 0.815,-0.71 0.815,-0.715C0.815,-0.719 0.812,-0.724 0.807,-0.724C0.756,-0.724 0.726,-0.72 0.675,-0.72C0.634,-0.72 0.611,-0.724 0.57,-0.724C0.564,-0.724 0.56,-0.72 0.56,-0.715C0.56,-0.709 0.565,-0.706 0.57,-0.706C0.586,-0.706 0.601,-0.698 0.612,-0.686C0.605,-0.632 0.51,-0.544 0.436,-0.463C0.385,-0.407 0.346,-0.371 0.297,-0.326L0.297,-0.455Z" style="fill-rule:nonzero;"/>
                    </g>
                    <g transform="matrix(300,0,0,300,1541.28,517.427)">
                        <path d="M0.143,0.007C0.195,0.007 0.222,-0.03 0.222,-0.076C0.222,-0.125 0.187,-0.156 0.143,-0.156C0.099,-0.156 0.061,-0.127 0.061,-0.076C0.061,-0.032 0.085,0.007 0.143,0.007ZM0.09,-0.435C0.107,-0.385 0.122,-0.319 0.122,-0.243L0.122,-0.23C0.122,-0.198 0.127,-0.191 0.144,-0.191C0.161,-0.191 0.166,-0.199 0.166,-0.229L0.166,-0.243C0.166,-0.333 0.179,-0.383 0.195,-0.433C0.207,-0.475 0.223,-0.518 0.227,-0.592C0.229,-0.64 0.194,-0.687 0.14,-0.687C0.08,-0.687 0.046,-0.639 0.05,-0.59C0.056,-0.522 0.074,-0.48 0.09,-0.435Z" style="fill-rule:nonzero;"/>
                    </g>
                </g>
                <g transform="matrix(0.904954,0,0,0.904954,6888.26,1247.86)">
                    <path d="M342.285,251.618C342.285,251.618 319.54,221.707 263.384,219.405C207.228,217.103 117.113,266.754 85.879,296.499C54.645,326.243 36.577,370.197 57.217,404.676C77.858,439.155 110.077,575.52 182.952,553.9C255.827,532.28 287.118,516.457 287.118,516.457C287.118,516.457 263.155,387.363 342.285,251.618Z" style="stroke:black;stroke-width:1.11px;"/>
                </g>
                <g transform="matrix(0.904954,0,0,0.904954,6888.26,1247.86)">
                    <path d="M550.53,219.328C550.53,219.328 644.988,130.249 694.238,162.118C743.488,193.988 848.676,242.613 852.978,287.41C857.28,332.207 862.764,417.608 839.374,443.874C815.983,470.139 760.743,489.65 739.046,493.624C717.348,497.598 645.717,245.177 550.53,219.328Z"/>
                </g>
                <g transform="matrix(0.904954,0,0,0.904954,6888.26,1247.86)">
                    <path d="M384.749,458.316C419.631,452.467 440.124,473.581 437.03,493.67C433.936,513.759 470.246,636.622 405.379,616.441C402.332,615.493 389.046,632.129 370.316,622.9C351.587,613.671 344.046,587.728 342.285,556.21C340.525,524.691 318.092,469.493 384.749,458.316Z"/>
                </g>
                <g transform="matrix(0.904954,0,0,0.904954,6888.26,1247.86)">
                    <path d="M1023.4,825.013C1023.4,825.013 1142.1,836.453 1135.13,923.129C1128.17,1009.8 1098.91,1090.62 1071.31,1148.76C1043.7,1206.9 945.221,1419.78 850.317,1379.19L886.499,1274.58C886.499,1274.58 974.287,1267.27 993.256,1200.77C993.256,1200.77 988.305,1240.52 890.37,1261.88L931.17,1141.89C931.17,1141.89 915.799,1118.42 923.361,1097.2C930.923,1075.98 965.172,1115.15 975.284,1099.28C985.396,1083.41 938.843,1051.22 928.028,1053.77C928.028,1053.77 947.488,1025.6 974.959,1041C1002.43,1056.41 930.528,986.5 976.265,993.889C1022,1001.28 1033.91,1052.66 1029.99,1072.34C1026.07,1092.02 1011.47,1108.22 1006.02,1111.97C1000.58,1115.71 996.392,1157.23 996.392,1157.23C996.392,1157.23 1020.56,1134.65 1033.78,1083.29C1047,1031.92 1028.04,994.645 982.688,972.699L1023.4,825.013Z"/>
                </g>
                <g transform="matrix(0.904954,0,0,0.904954,6888.26,1247.86)">
                    <ellipse cx="314.488" cy="487.3" rx="14.885" ry="21.915"/>
                </g>
                <g transform="matrix(0.904954,0,0,0.904954,6888.26,1247.86)">
                    <ellipse cx="519.814" cy="454.8" rx="24.131" ry="23.559"/>
                </g>
                <g transform="matrix(0.904954,0,0,0.904954,6888.26,1247.86)">
                    <path d="M519.814,716.114C519.814,716.114 476.38,741.373 435.747,706.055C395.113,670.738 422.368,864.178 436.08,924.784C449.792,985.389 504.199,1103.67 658.841,1016.91C813.484,930.15 952.434,831.655 1003.61,815.01C1054.78,798.365 1053.3,787.942 1083.72,788.29C1114.15,788.639 1121.59,782.728 1125.59,771.321C1129.6,759.913 1133.37,727.852 1108.51,734.17C1108.51,734.17 1106.96,733.28 1119.99,727.162C1132.71,721.189 1145.44,703.744 1140.44,691.982C1135.44,680.22 1130.4,678.927 1130.4,678.927C1130.4,678.927 1147.02,637.528 1121.99,632.892C1096.95,628.255 1072.01,631.675 1072.01,631.675L1070.84,639.011L1087.53,640.857C1087.53,640.857 1081.72,650.599 1055.35,657.363C1028.98,664.128 1006.89,669.353 990.668,667.615C974.446,665.878 954.749,659.547 938.774,639.756C922.8,619.964 914.259,604.33 908.298,587.702C902.337,571.074 897.654,559.826 886.356,557.273C875.058,554.719 860.52,542.332 858.378,577.394C856.441,609.099 871.903,640.157 868.743,653.468C865.583,666.779 860.062,698.799 832.085,709.623C804.109,720.447 776.327,724.454 724.232,748.78C672.136,773.107 649.702,797.664 613.685,790.464C577.668,783.263 525.816,763.156 519.814,716.114Z"/>
                </g>
                <g id="Chest" transform="matrix(0.904954,0,0,0.904954,6888.26,1247.86)">
                    <path d="M898.595,452.927C898.595,452.927 839.108,510.737 740.371,521.253C740.371,521.253 724.922,641.823 602.404,666.515C602.404,666.515 600.785,761.45 679.428,738.236C758.071,715.022 838.061,676.925 838.061,676.925L853.181,623.259C853.181,623.259 816.847,550.227 879.479,526.916L898.595,452.927Z" style="stroke:black;stroke-width:1.11px;"/>
                </g>
                <g id="Right-Hand" serif:id="Right Hand" transform="matrix(0.904954,0,0,0.904954,6888.26,1247.86)">
                    <path d="M1093.45,547.036C1093.45,547.036 1124.67,542.007 1149.21,500.486C1158.88,484.12 1246.48,293.023 1231.75,253.855C1217.03,214.687 1187.08,199.12 1148.62,209.841C1110.17,220.561 1106.94,240.423 1141.38,245.182C1175.82,249.942 1165.55,261.549 1154.1,263.062C1142.66,264.576 1077.02,289.496 1121.69,301.471C1166.37,313.447 1168.07,338.262 1141.38,333.47C1115.39,328.804 1068.35,353.542 1130.35,373.249L1093.45,547.036Z"/>
                </g>
                <g id="Left-Foot" serif:id="Left Foot" transform="matrix(0.904954,0,0,0.904954,6888.26,1247.86)">
                    <path d="M413.582,892.443C413.582,892.443 373.948,932.524 392.254,1023.34C410.56,1114.15 429.391,1300.42 602.401,1373.03L672.588,1178.92C672.588,1178.92 700.624,1180.61 703.091,1171.81C705.558,1163.01 679.165,1153.35 685.933,1140.56C692.702,1127.76 713.657,1145.47 717.156,1134.59C720.654,1123.72 689.17,1116.35 694.462,1103.49C699.755,1090.62 732.823,1098.78 732.823,1098.78C732.823,1098.78 731.592,1077.15 710.603,1070.06C689.614,1062.97 592.33,1038.6 591.167,1193.41C591.167,1193.41 560.221,1109.83 588.331,1072.46C588.331,1072.46 424.566,1086.92 413.582,892.443Z" style="stroke:black;stroke-width:1.11px;"/>
                </g>
            </g>
            <g transform="matrix(1.48484,0,0,1.41945,-3141.24,-2353.71)">
                <g transform="matrix(0.806267,0,0,0.603857,-1637.87,4730.14)">
                    <g transform="matrix(300,0,0,300,10853.3,2790.57)">
                        <path d="M0.069,-0.71L0.339,-0.064L0.609,-0.71L0.663,-0.71L0.364,-0L0.315,-0L0.015,-0.71L0.069,-0.71Z" style="fill-rule:nonzero;"/>
                    </g>
                    <g transform="matrix(300,0,0,300,11056.7,2790.57)">
                        <path d="M0.078,-0L0.078,-0.52L0.128,-0.52L0.128,-0L0.078,-0ZM0.078,-0.638L0.078,-0.73L0.128,-0.73L0.128,-0.638L0.078,-0.638Z" style="fill-rule:nonzero;"/>
                    </g>
                    <g transform="matrix(300,0,0,300,11113.1,2790.57)">
                        <path d="M0.242,0.01C0.201,0.01 0.162,0.003 0.127,-0.011C0.092,-0.025 0.061,-0.046 0.034,-0.075L0.057,-0.11C0.086,-0.083 0.115,-0.063 0.144,-0.051C0.173,-0.038 0.205,-0.032 0.24,-0.032C0.285,-0.032 0.321,-0.041 0.349,-0.06C0.376,-0.079 0.39,-0.105 0.39,-0.138C0.39,-0.161 0.384,-0.178 0.371,-0.191C0.358,-0.203 0.339,-0.213 0.315,-0.221C0.29,-0.228 0.261,-0.236 0.226,-0.245C0.191,-0.254 0.161,-0.264 0.137,-0.274C0.112,-0.284 0.094,-0.297 0.082,-0.313C0.07,-0.329 0.064,-0.351 0.064,-0.378C0.064,-0.412 0.073,-0.44 0.09,-0.463C0.107,-0.485 0.13,-0.501 0.159,-0.513C0.188,-0.524 0.22,-0.529 0.255,-0.529C0.296,-0.529 0.331,-0.522 0.362,-0.509C0.392,-0.496 0.415,-0.478 0.431,-0.456L0.404,-0.424C0.387,-0.445 0.366,-0.461 0.339,-0.472C0.312,-0.482 0.283,-0.487 0.251,-0.487C0.227,-0.487 0.204,-0.484 0.183,-0.477C0.162,-0.47 0.145,-0.46 0.132,-0.445C0.119,-0.43 0.112,-0.409 0.112,-0.384C0.112,-0.364 0.117,-0.348 0.127,-0.337C0.136,-0.326 0.151,-0.317 0.17,-0.31C0.189,-0.303 0.213,-0.295 0.242,-0.287C0.283,-0.277 0.318,-0.267 0.347,-0.256C0.376,-0.245 0.399,-0.232 0.415,-0.215C0.431,-0.198 0.439,-0.174 0.439,-0.143C0.439,-0.096 0.421,-0.058 0.385,-0.031C0.349,-0.004 0.301,0.01 0.242,0.01Z" style="fill-rule:nonzero;"/>
                    </g>
                    <g transform="matrix(300,0,0,300,11254.4,2790.57)">
                        <path d="M0.073,-0.22L0.073,-0.52L0.123,-0.52L0.123,-0.227C0.123,-0.162 0.134,-0.114 0.156,-0.083C0.177,-0.051 0.21,-0.035 0.254,-0.035C0.283,-0.035 0.312,-0.042 0.339,-0.055C0.366,-0.067 0.389,-0.086 0.41,-0.11C0.431,-0.133 0.446,-0.161 0.456,-0.192L0.456,-0.52L0.506,-0.52L0.506,-0.066C0.506,-0.058 0.508,-0.052 0.512,-0.048C0.515,-0.044 0.52,-0.042 0.527,-0.041L0.527,-0C0.52,0.001 0.515,0.001 0.512,0.001C0.508,0.001 0.505,0.001 0.502,-0C0.491,-0.001 0.481,-0.006 0.474,-0.015C0.467,-0.023 0.463,-0.033 0.462,-0.045L0.461,-0.123C0.438,-0.082 0.407,-0.049 0.368,-0.026C0.328,-0.002 0.285,0.01 0.239,0.01C0.184,0.01 0.143,-0.009 0.115,-0.048C0.087,-0.087 0.073,-0.144 0.073,-0.22Z" style="fill-rule:nonzero;"/>
                    </g>
                    <g transform="matrix(300,0,0,300,11427.2,2790.57)">
                        <path d="M0.035,-0.15C0.035,-0.181 0.044,-0.209 0.063,-0.232C0.082,-0.255 0.107,-0.273 0.14,-0.286C0.173,-0.299 0.21,-0.305 0.253,-0.305C0.28,-0.305 0.307,-0.303 0.336,-0.298C0.365,-0.293 0.39,-0.287 0.413,-0.279L0.413,-0.328C0.413,-0.376 0.399,-0.414 0.372,-0.443C0.344,-0.472 0.306,-0.486 0.257,-0.486C0.231,-0.486 0.204,-0.481 0.176,-0.47C0.148,-0.459 0.119,-0.444 0.09,-0.424L0.069,-0.46C0.103,-0.483 0.136,-0.5 0.168,-0.512C0.199,-0.523 0.231,-0.529 0.262,-0.529C0.324,-0.529 0.373,-0.511 0.409,-0.474C0.445,-0.437 0.463,-0.387 0.463,-0.324L0.463,-0.066C0.463,-0.058 0.465,-0.052 0.469,-0.048C0.472,-0.044 0.478,-0.042 0.485,-0.041L0.485,-0C0.479,0.001 0.474,0.001 0.47,0.001L0.46,0.001C0.447,-0.001 0.438,-0.006 0.431,-0.015C0.424,-0.024 0.42,-0.033 0.419,-0.044L0.419,-0.085C0.395,-0.055 0.364,-0.032 0.327,-0.015C0.289,0.002 0.249,0.01 0.208,0.01C0.175,0.01 0.146,0.003 0.12,-0.011C0.093,-0.025 0.073,-0.044 0.058,-0.069C0.043,-0.093 0.035,-0.12 0.035,-0.15ZM0.393,-0.107C0.4,-0.116 0.405,-0.124 0.408,-0.132C0.411,-0.14 0.413,-0.147 0.413,-0.154L0.413,-0.24C0.389,-0.249 0.364,-0.256 0.338,-0.261C0.312,-0.266 0.285,-0.268 0.258,-0.268C0.206,-0.268 0.164,-0.258 0.132,-0.237C0.099,-0.216 0.083,-0.188 0.083,-0.153C0.083,-0.131 0.089,-0.111 0.1,-0.092C0.111,-0.073 0.127,-0.058 0.148,-0.047C0.168,-0.036 0.191,-0.03 0.218,-0.03C0.255,-0.03 0.29,-0.037 0.322,-0.052C0.353,-0.066 0.377,-0.084 0.393,-0.107Z" style="fill-rule:nonzero;"/>
                    </g>
                    <g transform="matrix(300,0,0,300,11584.4,2790.57)">
                        <path d="M0.082,-0.73L0.133,-0.73L0.133,-0.103C0.133,-0.079 0.138,-0.063 0.148,-0.054C0.158,-0.045 0.171,-0.04 0.187,-0.04C0.198,-0.04 0.209,-0.041 0.22,-0.043C0.231,-0.045 0.241,-0.048 0.25,-0.051L0.26,-0.01C0.249,-0.006 0.235,-0.002 0.218,0.001C0.201,0.004 0.187,0.006 0.175,0.006C0.147,0.006 0.125,-0.003 0.108,-0.02C0.091,-0.037 0.082,-0.059 0.082,-0.088L0.082,-0.73Z" style="fill-rule:nonzero;"/>
                    </g>
                    <g transform="matrix(300,0,0,300,11655.8,2790.57)">
                        <path d="M0.078,-0L0.078,-0.52L0.128,-0.52L0.128,-0L0.078,-0ZM0.078,-0.638L0.078,-0.73L0.128,-0.73L0.128,-0.638L0.078,-0.638Z" style="fill-rule:nonzero;"/>
                    </g>
                    <g transform="matrix(300,0,0,300,11712.2,2790.57)">
                        <path d="M0.032,-0.036L0.398,-0.481L0.038,-0.481L0.038,-0.52L0.456,-0.52L0.456,-0.484L0.091,-0.039L0.454,-0.039L0.454,-0L0.032,-0L0.032,-0.036Z" style="fill-rule:nonzero;"/>
                    </g>
                    <g transform="matrix(300,0,0,300,11854.4,2790.57)">
                        <path d="M0.299,0.01C0.262,0.01 0.228,0.003 0.197,-0.012C0.166,-0.026 0.138,-0.046 0.116,-0.071C0.093,-0.095 0.075,-0.125 0.062,-0.158C0.049,-0.191 0.042,-0.225 0.042,-0.262C0.042,-0.311 0.053,-0.356 0.075,-0.396C0.097,-0.436 0.127,-0.468 0.166,-0.493C0.205,-0.517 0.248,-0.529 0.296,-0.529C0.345,-0.529 0.389,-0.517 0.427,-0.492C0.465,-0.467 0.495,-0.435 0.518,-0.395C0.54,-0.354 0.551,-0.31 0.551,-0.262L0.551,-0.25C0.551,-0.246 0.551,-0.243 0.55,-0.24L0.094,-0.24C0.097,-0.201 0.108,-0.165 0.127,-0.133C0.146,-0.101 0.171,-0.076 0.202,-0.058C0.232,-0.039 0.265,-0.03 0.301,-0.03C0.337,-0.03 0.371,-0.039 0.403,-0.058C0.435,-0.077 0.457,-0.101 0.47,-0.13L0.514,-0.118C0.504,-0.093 0.488,-0.071 0.467,-0.052C0.445,-0.033 0.42,-0.017 0.391,-0.007C0.362,0.005 0.331,0.01 0.299,0.01ZM0.092,-0.279L0.503,-0.279C0.5,-0.32 0.49,-0.356 0.471,-0.387C0.452,-0.418 0.428,-0.443 0.398,-0.461C0.367,-0.479 0.334,-0.488 0.297,-0.488C0.26,-0.488 0.227,-0.479 0.197,-0.461C0.167,-0.443 0.143,-0.418 0.124,-0.387C0.105,-0.356 0.095,-0.32 0.092,-0.279Z" style="fill-rule:nonzero;"/>
                    </g>
                    <g transform="matrix(300,0,0,300,12095.3,2790.57)">
                        <path d="M0.075,-0.71L0.323,-0.317L0.572,-0.71L0.629,-0.71L0.349,-0.268L0.349,-0L0.298,-0L0.298,-0.27L0.019,-0.71L0.075,-0.71Z" style="fill-rule:nonzero;"/>
                    </g>
                    <g transform="matrix(300,0,0,300,12259.7,2790.57)">
                        <path d="M0.296,0.01C0.259,0.01 0.226,0.003 0.195,-0.011C0.164,-0.025 0.137,-0.045 0.114,-0.07C0.091,-0.094 0.074,-0.123 0.061,-0.156C0.048,-0.189 0.042,-0.223 0.042,-0.259C0.042,-0.296 0.048,-0.33 0.061,-0.363C0.074,-0.395 0.092,-0.424 0.115,-0.449C0.137,-0.474 0.165,-0.493 0.196,-0.508C0.227,-0.522 0.26,-0.529 0.296,-0.529C0.332,-0.529 0.365,-0.522 0.396,-0.508C0.427,-0.493 0.454,-0.474 0.477,-0.449C0.5,-0.424 0.518,-0.395 0.531,-0.363C0.544,-0.33 0.55,-0.296 0.55,-0.259C0.55,-0.223 0.544,-0.189 0.531,-0.156C0.518,-0.123 0.501,-0.094 0.478,-0.07C0.455,-0.045 0.428,-0.025 0.397,-0.011C0.366,0.003 0.332,0.01 0.296,0.01ZM0.092,-0.257C0.092,-0.216 0.101,-0.179 0.12,-0.146C0.138,-0.112 0.162,-0.085 0.193,-0.065C0.224,-0.045 0.258,-0.035 0.295,-0.035C0.332,-0.035 0.367,-0.045 0.398,-0.066C0.429,-0.086 0.453,-0.113 0.472,-0.148C0.49,-0.182 0.499,-0.219 0.499,-0.26C0.499,-0.301 0.49,-0.338 0.472,-0.372C0.453,-0.406 0.429,-0.433 0.398,-0.454C0.367,-0.474 0.333,-0.484 0.296,-0.484C0.259,-0.484 0.225,-0.474 0.194,-0.453C0.163,-0.432 0.139,-0.405 0.12,-0.371C0.101,-0.337 0.092,-0.299 0.092,-0.257Z" style="fill-rule:nonzero;"/>
                    </g>
                    <g transform="matrix(300,0,0,300,12435.5,2790.57)">
                        <path d="M0.073,-0.22L0.073,-0.52L0.123,-0.52L0.123,-0.227C0.123,-0.162 0.134,-0.114 0.156,-0.083C0.177,-0.051 0.21,-0.035 0.254,-0.035C0.283,-0.035 0.312,-0.042 0.339,-0.055C0.366,-0.067 0.389,-0.086 0.41,-0.11C0.431,-0.133 0.446,-0.161 0.456,-0.192L0.456,-0.52L0.506,-0.52L0.506,-0.066C0.506,-0.058 0.508,-0.052 0.512,-0.048C0.515,-0.044 0.52,-0.042 0.527,-0.041L0.527,-0C0.52,0.001 0.515,0.001 0.512,0.001C0.508,0.001 0.505,0.001 0.502,-0C0.491,-0.001 0.481,-0.006 0.474,-0.015C0.467,-0.023 0.463,-0.033 0.462,-0.045L0.461,-0.123C0.438,-0.082 0.407,-0.049 0.368,-0.026C0.328,-0.002 0.285,0.01 0.239,0.01C0.184,0.01 0.143,-0.009 0.115,-0.048C0.087,-0.087 0.073,-0.144 0.073,-0.22Z" style="fill-rule:nonzero;"/>
                    </g>
                    <g transform="matrix(300,0,0,300,12608.3,2790.57)">
                        <path d="M0.324,-0.475C0.277,-0.474 0.237,-0.46 0.202,-0.434C0.167,-0.407 0.142,-0.371 0.128,-0.325L0.128,-0L0.078,-0L0.078,-0.52L0.126,-0.52L0.126,-0.392C0.144,-0.429 0.168,-0.458 0.198,-0.482C0.228,-0.505 0.26,-0.518 0.293,-0.521C0.3,-0.522 0.306,-0.522 0.311,-0.522L0.324,-0.522L0.324,-0.475Z" style="fill-rule:nonzero;"/>
                    </g>
                    <g transform="matrix(300,0,0,300,12766.1,2790.57)">
                        <path d="M0.365,-0.705L0.415,-0.705L0.521,-0.447L0.627,-0.705L0.677,-0.705L0.552,-0.406L0.701,-0.06L0.973,-0.71L1.029,-0.71L0.725,-0L0.678,-0L0.522,-0.365L0.365,-0L0.318,-0L0.015,-0.71L0.07,-0.71L0.343,-0.06L0.49,-0.406L0.365,-0.705Z" style="fill-rule:nonzero;"/>
                    </g>
                    <g transform="matrix(300,0,0,300,13058.3,2790.57)">
                        <path d="M0.296,0.01C0.259,0.01 0.226,0.003 0.195,-0.011C0.164,-0.025 0.137,-0.045 0.114,-0.07C0.091,-0.094 0.074,-0.123 0.061,-0.156C0.048,-0.189 0.042,-0.223 0.042,-0.259C0.042,-0.296 0.048,-0.33 0.061,-0.363C0.074,-0.395 0.092,-0.424 0.115,-0.449C0.137,-0.474 0.165,-0.493 0.196,-0.508C0.227,-0.522 0.26,-0.529 0.296,-0.529C0.332,-0.529 0.365,-0.522 0.396,-0.508C0.427,-0.493 0.454,-0.474 0.477,-0.449C0.5,-0.424 0.518,-0.395 0.531,-0.363C0.544,-0.33 0.55,-0.296 0.55,-0.259C0.55,-0.223 0.544,-0.189 0.531,-0.156C0.518,-0.123 0.501,-0.094 0.478,-0.07C0.455,-0.045 0.428,-0.025 0.397,-0.011C0.366,0.003 0.332,0.01 0.296,0.01ZM0.092,-0.257C0.092,-0.216 0.101,-0.179 0.12,-0.146C0.138,-0.112 0.162,-0.085 0.193,-0.065C0.224,-0.045 0.258,-0.035 0.295,-0.035C0.332,-0.035 0.367,-0.045 0.398,-0.066C0.429,-0.086 0.453,-0.113 0.472,-0.148C0.49,-0.182 0.499,-0.219 0.499,-0.26C0.499,-0.301 0.49,-0.338 0.472,-0.372C0.453,-0.406 0.429,-0.433 0.398,-0.454C0.367,-0.474 0.333,-0.484 0.296,-0.484C0.259,-0.484 0.225,-0.474 0.194,-0.453C0.163,-0.432 0.139,-0.405 0.12,-0.371C0.101,-0.337 0.092,-0.299 0.092,-0.257Z" style="fill-rule:nonzero;"/>
                    </g>
                    <g transform="matrix(300,0,0,300,13234.1,2790.57)">
                        <path d="M0.324,-0.475C0.277,-0.474 0.237,-0.46 0.202,-0.434C0.167,-0.407 0.142,-0.371 0.128,-0.325L0.128,-0L0.078,-0L0.078,-0.52L0.126,-0.52L0.126,-0.392C0.144,-0.429 0.168,-0.458 0.198,-0.482C0.228,-0.505 0.26,-0.518 0.293,-0.521C0.3,-0.522 0.306,-0.522 0.311,-0.522L0.324,-0.522L0.324,-0.475Z" style="fill-rule:nonzero;"/>
                    </g>
                    <g transform="matrix(300,0,0,300,13331,2790.57)">
                        <path d="M0.082,-0.73L0.133,-0.73L0.133,-0.103C0.133,-0.079 0.138,-0.063 0.148,-0.054C0.158,-0.045 0.171,-0.04 0.187,-0.04C0.198,-0.04 0.209,-0.041 0.22,-0.043C0.231,-0.045 0.241,-0.048 0.25,-0.051L0.26,-0.01C0.249,-0.006 0.235,-0.002 0.218,0.001C0.201,0.004 0.187,0.006 0.175,0.006C0.147,0.006 0.125,-0.003 0.108,-0.02C0.091,-0.037 0.082,-0.059 0.082,-0.088L0.082,-0.73Z" style="fill-rule:nonzero;"/>
                    </g>
                    <g transform="matrix(300,0,0,300,13402.4,2790.57)">
                        <path d="M0.042,-0.259C0.042,-0.308 0.052,-0.352 0.073,-0.393C0.094,-0.434 0.122,-0.466 0.158,-0.492C0.194,-0.517 0.235,-0.529 0.281,-0.529C0.326,-0.529 0.367,-0.517 0.402,-0.493C0.437,-0.469 0.464,-0.44 0.484,-0.407L0.484,-0.73L0.534,-0.73L0.534,-0.066C0.534,-0.058 0.536,-0.052 0.54,-0.048C0.543,-0.044 0.548,-0.042 0.555,-0.041L0.555,-0C0.544,0.001 0.536,0.002 0.531,0.001C0.519,-0.001 0.509,-0.007 0.501,-0.016C0.493,-0.025 0.489,-0.035 0.489,-0.046L0.489,-0.104C0.468,-0.069 0.439,-0.042 0.403,-0.021C0.367,-0 0.33,0.01 0.292,0.01C0.256,0.01 0.223,0.003 0.192,-0.013C0.161,-0.028 0.135,-0.048 0.113,-0.073C0.09,-0.098 0.073,-0.127 0.061,-0.159C0.048,-0.191 0.042,-0.224 0.042,-0.259ZM0.484,-0.175L0.484,-0.346C0.475,-0.371 0.46,-0.395 0.439,-0.416C0.418,-0.437 0.395,-0.453 0.369,-0.466C0.343,-0.478 0.317,-0.484 0.292,-0.484C0.262,-0.484 0.235,-0.478 0.211,-0.465C0.186,-0.452 0.165,-0.435 0.148,-0.414C0.13,-0.393 0.116,-0.369 0.107,-0.342C0.098,-0.315 0.093,-0.287 0.093,-0.258C0.093,-0.229 0.098,-0.201 0.109,-0.174C0.12,-0.147 0.134,-0.123 0.154,-0.102C0.172,-0.081 0.195,-0.064 0.22,-0.053C0.245,-0.041 0.272,-0.035 0.301,-0.035C0.319,-0.035 0.338,-0.039 0.359,-0.046C0.379,-0.053 0.398,-0.064 0.417,-0.077C0.435,-0.09 0.45,-0.105 0.463,-0.122C0.475,-0.138 0.482,-0.156 0.484,-0.175Z" style="fill-rule:nonzero;"/>
                    </g>
                </g>
                <g transform="matrix(3.21251,0,0,2.40602,4137.42,5006.81)">
                    <g transform="matrix(300,0,0,300,924.182,517.427)">
                        <path d="M0.391,-0C0.396,-0 0.399,-0.004 0.399,-0.009C0.399,-0.014 0.397,-0.017 0.391,-0.018C0.377,-0.019 0.357,-0.02 0.342,-0.021C0.31,-0.024 0.31,-0.021 0.31,-0.389C0.31,-0.702 0.312,-0.702 0.342,-0.704C0.352,-0.705 0.375,-0.706 0.387,-0.706C0.392,-0.706 0.395,-0.71 0.395,-0.715C0.395,-0.719 0.393,-0.724 0.387,-0.724C0.321,-0.724 0.276,-0.72 0.205,-0.72C0.136,-0.72 0.092,-0.724 0.028,-0.724C0.023,-0.724 0.02,-0.72 0.02,-0.715C0.02,-0.71 0.022,-0.706 0.028,-0.706C0.04,-0.706 0.063,-0.705 0.073,-0.704C0.105,-0.702 0.105,-0.703 0.105,-0.389C0.105,-0.021 0.105,-0.024 0.073,-0.021C0.059,-0.02 0.038,-0.018 0.024,-0.018C0.019,-0.018 0.016,-0.014 0.016,-0.009C0.016,-0.004 0.018,-0 0.024,-0C0.091,-0 0.136,-0.004 0.208,-0.004C0.279,-0.004 0.325,-0 0.391,-0Z" style="fill-rule:nonzero;"/>
                    </g>
                    <g transform="matrix(300,0,0,300,1048.68,517.427)">
                        <path d="M0.719,0.01C0.728,0.01 0.733,-0.003 0.733,-0.029C0.735,-0.122 0.735,-0.201 0.735,-0.28C0.744,-0.605 0.753,-0.654 0.774,-0.697C0.784,-0.699 0.81,-0.706 0.827,-0.706C0.833,-0.706 0.836,-0.71 0.836,-0.715C0.836,-0.72 0.833,-0.724 0.827,-0.724C0.79,-0.724 0.77,-0.721 0.733,-0.721C0.693,-0.721 0.67,-0.724 0.63,-0.724C0.624,-0.724 0.621,-0.719 0.621,-0.714C0.621,-0.709 0.623,-0.707 0.63,-0.706C0.642,-0.705 0.68,-0.7 0.687,-0.699C0.707,-0.664 0.711,-0.633 0.711,-0.348L0.711,-0.275C0.588,-0.401 0.383,-0.615 0.293,-0.724C0.291,-0.726 0.287,-0.728 0.278,-0.728C0.259,-0.728 0.209,-0.721 0.122,-0.721C0.088,-0.721 0.054,-0.722 0.016,-0.724C0.011,-0.724 0.008,-0.72 0.008,-0.715C0.008,-0.71 0.01,-0.706 0.016,-0.706C0.049,-0.707 0.063,-0.683 0.118,-0.615L0.118,-0.459C0.118,-0.145 0.099,-0.05 0.081,-0.024C0.071,-0.022 0.043,-0.018 0.022,-0.018C0.016,-0.018 0.013,-0.014 0.013,-0.009C0.013,-0.004 0.016,-0 0.022,-0C0.063,-0 0.087,-0.003 0.128,-0.003C0.171,-0.003 0.196,-0 0.239,-0C0.245,-0 0.249,-0.004 0.249,-0.009C0.249,-0.013 0.246,-0.017 0.239,-0.018C0.227,-0.019 0.189,-0.021 0.182,-0.022C0.157,-0.026 0.143,-0.268 0.143,-0.554L0.143,-0.588L0.682,-0.016C0.699,0.002 0.708,0.01 0.719,0.01Z" style="fill-rule:nonzero;"/>
                    </g>
                    <g transform="matrix(300,0,0,300,1298.28,517.427)">
                        <path d="M0.297,-0.455C0.297,-0.701 0.3,-0.702 0.337,-0.705C0.345,-0.706 0.361,-0.706 0.369,-0.706C0.374,-0.706 0.379,-0.709 0.379,-0.715C0.379,-0.72 0.375,-0.724 0.369,-0.724C0.304,-0.723 0.267,-0.72 0.202,-0.72C0.136,-0.72 0.099,-0.723 0.033,-0.724C0.028,-0.724 0.025,-0.72 0.025,-0.715C0.025,-0.71 0.027,-0.707 0.033,-0.706C0.045,-0.705 0.055,-0.705 0.065,-0.705C0.097,-0.704 0.096,-0.705 0.097,-0.389C0.098,-0.019 0.096,-0.022 0.064,-0.02C0.05,-0.019 0.045,-0.019 0.029,-0.018C0.024,-0.018 0.021,-0.014 0.021,-0.009C0.021,-0.004 0.023,-0 0.029,-0C0.096,-0 0.133,-0.004 0.2,-0.004C0.263,-0.004 0.298,-0 0.361,-0C0.367,-0 0.371,-0.004 0.371,-0.009C0.371,-0.014 0.368,-0.018 0.361,-0.018C0.353,-0.018 0.349,-0.018 0.341,-0.019C0.297,-0.022 0.297,-0.02 0.297,-0.242L0.297,-0.289L0.342,-0.333L0.495,-0.08C0.512,-0.049 0.52,-0.035 0.52,-0.028C0.52,-0.022 0.513,-0.02 0.502,-0.019C0.491,-0.018 0.486,-0.017 0.479,-0.016C0.472,-0.015 0.469,-0.011 0.47,-0.006C0.471,-0.001 0.474,0.002 0.479,0.002C0.525,-0.001 0.619,-0.003 0.644,-0.003C0.714,-0.003 0.754,-0 0.824,-0C0.83,-0 0.832,-0.004 0.832,-0.009C0.832,-0.013 0.829,-0.018 0.824,-0.018C0.764,-0.023 0.732,-0.08 0.598,-0.299C0.559,-0.364 0.488,-0.474 0.488,-0.474L0.639,-0.614C0.694,-0.665 0.744,-0.706 0.807,-0.706C0.813,-0.706 0.815,-0.71 0.815,-0.715C0.815,-0.719 0.812,-0.724 0.807,-0.724C0.756,-0.724 0.726,-0.72 0.675,-0.72C0.634,-0.72 0.611,-0.724 0.57,-0.724C0.564,-0.724 0.56,-0.72 0.56,-0.715C0.56,-0.709 0.565,-0.706 0.57,-0.706C0.586,-0.706 0.601,-0.698 0.612,-0.686C0.605,-0.632 0.51,-0.544 0.436,-0.463C0.385,-0.407 0.346,-0.371 0.297,-0.326L0.297,-0.455Z" style="fill-rule:nonzero;"/>
                    </g>
                    <g transform="matrix(300,0,0,300,1541.28,517.427)">
                        <path d="M0.143,0.007C0.195,0.007 0.222,-0.03 0.222,-0.076C0.222,-0.125 0.187,-0.156 0.143,-0.156C0.099,-0.156 0.061,-0.127 0.061,-0.076C0.061,-0.032 0.085,0.007 0.143,0.007ZM0.09,-0.435C0.107,-0.385 0.122,-0.319 0.122,-0.243L0.122,-0.23C0.122,-0.198 0.127,-0.191 0.144,-0.191C0.161,-0.191 0.166,-0.199 0.166,-0.229L0.166,-0.243C0.166,-0.333 0.179,-0.383 0.195,-0.433C0.207,-0.475 0.223,-0.518 0.227,-0.592C0.229,-0.64 0.194,-0.687 0.14,-0.687C0.08,-0.687 0.046,-0.639 0.05,-0.59C0.056,-0.522 0.074,-0.48 0.09,-0.435Z" style="fill-rule:nonzero;"/>
                    </g>
                </g>
                <g transform="matrix(1.61231,0,0,1.20755,7910.94,4625.5)">
                    <g transform="matrix(1,0,0,1,589.658,261.986)">
                        <path d="M342.285,251.618C342.285,251.618 319.54,221.707 263.384,219.405C207.228,217.103 117.113,266.754 85.879,296.499C54.645,326.243 36.577,370.197 57.217,404.676C77.858,439.155 110.077,575.52 182.952,553.9C255.827,532.28 287.118,516.457 287.118,516.457C287.118,516.457 263.155,387.363 342.285,251.618Z" style="stroke:black;stroke-width:0.78px;"/>
                    </g>
                    <g transform="matrix(1,0,0,1,589.658,261.986)">
                        <path d="M550.53,219.328C550.53,219.328 644.988,130.249 694.238,162.118C743.488,193.988 848.676,242.613 852.978,287.41C857.28,332.207 862.764,417.608 839.374,443.874C815.983,470.139 760.743,489.65 739.046,493.624C717.348,497.598 645.717,245.177 550.53,219.328Z"/>
                    </g>
                    <g transform="matrix(1,0,0,1,589.658,261.986)">
                        <path d="M384.749,458.316C419.631,452.467 440.124,473.581 437.03,493.67C433.936,513.759 470.246,636.622 405.379,616.441C402.332,615.493 389.046,632.129 370.316,622.9C351.587,613.671 344.046,587.728 342.285,556.21C340.525,524.691 318.092,469.493 384.749,458.316Z"/>
                    </g>
                    <g transform="matrix(1,0,0,1,589.658,261.986)">
                        <path d="M1023.4,825.013C1023.4,825.013 1142.1,836.453 1135.13,923.129C1128.17,1009.8 1098.91,1090.62 1071.31,1148.76C1043.7,1206.9 945.221,1419.78 850.317,1379.19L886.499,1274.58C886.499,1274.58 974.287,1267.27 993.256,1200.77C993.256,1200.77 988.305,1240.52 890.37,1261.88L931.17,1141.89C931.17,1141.89 915.799,1118.42 923.361,1097.2C930.923,1075.98 965.172,1115.15 975.284,1099.28C985.396,1083.41 938.843,1051.22 928.028,1053.77C928.028,1053.77 947.488,1025.6 974.959,1041C1002.43,1056.41 930.528,986.5 976.265,993.889C1022,1001.28 1033.91,1052.66 1029.99,1072.34C1026.07,1092.02 1011.47,1108.22 1006.02,1111.97C1000.58,1115.71 996.392,1157.23 996.392,1157.23C996.392,1157.23 1020.56,1134.65 1033.78,1083.29C1047,1031.92 1028.04,994.645 982.688,972.699L1023.4,825.013Z"/>
                    </g>
                    <g transform="matrix(1,0,0,1,589.658,261.986)">
                        <ellipse cx="314.488" cy="487.3" rx="14.885" ry="21.915"/>
                    </g>
                    <g transform="matrix(1,0,0,1,589.658,261.986)">
                        <ellipse cx="519.814" cy="454.8" rx="24.131" ry="23.559"/>
                    </g>
                    <g transform="matrix(1,0,0,1,589.658,261.986)">
                        <path d="M519.814,716.114C519.814,716.114 476.38,741.373 435.747,706.055C395.113,670.738 422.368,864.178 436.08,924.784C449.792,985.389 504.199,1103.67 658.841,1016.91C813.484,930.15 952.434,831.655 1003.61,815.01C1054.78,798.365 1053.3,787.942 1083.72,788.29C1114.15,788.639 1121.59,782.728 1125.59,771.321C1129.6,759.913 1133.37,727.852 1108.51,734.17C1108.51,734.17 1106.96,733.28 1119.99,727.162C1132.71,721.189 1145.44,703.744 1140.44,691.982C1135.44,680.22 1130.4,678.927 1130.4,678.927C1130.4,678.927 1147.02,637.528 1121.99,632.892C1096.95,628.255 1072.01,631.675 1072.01,631.675L1070.84,639.011L1087.53,640.857C1087.53,640.857 1081.72,650.599 1055.35,657.363C1028.98,664.128 1006.89,669.353 990.668,667.615C974.446,665.878 954.749,659.547 938.774,639.756C922.8,619.964 914.259,604.33 908.298,587.702C902.337,571.074 897.654,559.826 886.356,557.273C875.058,554.719 860.52,542.332 858.378,577.394C856.441,609.099 871.903,640.157 868.743,653.468C865.583,666.779 860.062,698.799 832.085,709.623C804.109,720.447 776.327,724.454 724.232,748.78C672.136,773.107 649.702,797.664 613.685,790.464C577.668,783.263 525.816,763.156 519.814,716.114Z"/>
                    </g>
                    <g id="Chest1" serif:id="Chest" transform="matrix(1,0,0,1,589.658,261.986)">
                        <path d="M898.595,452.927C898.595,452.927 839.108,510.737 740.371,521.253C740.371,521.253 724.922,641.823 602.404,666.515C602.404,666.515 600.785,761.45 679.428,738.236C758.071,715.022 838.061,676.925 838.061,676.925L853.181,623.259C853.181,623.259 816.847,550.227 879.479,526.916L898.595,452.927Z" style="stroke:black;stroke-width:0.78px;"/>
                    </g>
                    <g id="Right-Hand1" serif:id="Right Hand" transform="matrix(1,0,0,1,589.658,261.986)">
                        <path d="M1093.45,547.036C1093.45,547.036 1124.67,542.007 1149.21,500.486C1158.88,484.12 1246.48,293.023 1231.75,253.855C1217.03,214.687 1187.08,199.12 1148.62,209.841C1110.17,220.561 1106.94,240.423 1141.38,245.182C1175.82,249.942 1165.55,261.549 1154.1,263.062C1142.66,264.576 1077.02,289.496 1121.69,301.471C1166.37,313.447 1168.07,338.262 1141.38,333.47C1115.39,328.804 1068.35,353.542 1130.35,373.249L1093.45,547.036Z"/>
                    </g>
                    <g id="Left-Foot1" serif:id="Left Foot" transform="matrix(1,0,0,1,589.658,261.986)">
                        <path d="M413.582,892.443C413.582,892.443 373.948,932.524 392.254,1023.34C410.56,1114.15 429.391,1300.42 602.401,1373.03L672.588,1178.92C672.588,1178.92 700.624,1180.61 703.091,1171.81C705.558,1163.01 679.165,1153.35 685.933,1140.56C692.702,1127.76 713.657,1145.47 717.156,1134.59C720.654,1123.72 689.17,1116.35 694.462,1103.49C699.755,1090.62 732.823,1098.78 732.823,1098.78C732.823,1098.78 731.592,1077.15 710.603,1070.06C689.614,1062.97 592.33,1038.6 591.167,1193.41C591.167,1193.41 560.221,1109.83 588.331,1072.46C588.331,1072.46 424.566,1086.92 413.582,892.443Z" style="stroke:black;stroke-width:0.78px;"/>
                    </g>
                </g>
            </g>
        </g>
    </g>
</svg>
