<?xml version="1.0" encoding="UTF-8" standalone="no"?>
<!DOCTYPE svg PUBLIC "-//W3C//DTD SVG 1.1//EN" "http://www.w3.org/Graphics/SVG/1.1/DTD/svg11.dtd">
<svg width="100%" height="100%" viewBox="0 0 1940 444" version="1.1" xmlns="http://www.w3.org/2000/svg" xmlns:xlink="http://www.w3.org/1999/xlink" xml:space="preserve" xmlns:serif="http://www.serif.com/" style="fill-rule:evenodd;clip-rule:evenodd;stroke-linejoin:round;stroke-miterlimit:2;">
    <g transform="matrix(1,0,0,1,-11.4378,-1199.61)">
        <g id="Design" transform="matrix(20.0608,0,0,4.15622,11.4378,1199.61)">
            <rect x="0" y="0" width="96.667" height="106.667" style="fill:none;"/>
            <g id="Lion" transform="matrix(0.207702,0,0,1.00251,-1.74354e-17,0)">
                <g transform="matrix(1,0,0,1,39.5815,95.5825)">
                    <path d="M0,-87.706C0,-87.706 5.272,-91.164 12.513,-91.891C19.75,-92.621 25.009,-93.558 25.896,-94.443C25.896,-94.443 21.548,-87.762 27.209,-89.383C27.209,-89.383 26.468,-87.986 25.218,-87.57C25.218,-87.57 29.279,-84.602 25.113,-78.299C25.113,-78.299 22.563,-78.978 21.938,-81.893C21.938,-81.893 22.095,-78.614 25.113,-76.582C28.133,-74.55 26.468,-69.917 26.468,-68.823C26.468,-67.73 26.155,-61.793 27.458,-60.646C27.458,-60.646 22.303,-66.374 21.886,-68.875C21.886,-68.875 18.404,-56.713 25.145,-51.128C25.145,-51.128 16.679,-53.461 15.012,-60.334C15.012,-60.334 5.273,-54.241 6.681,-48.981C6.681,-48.981 9.804,-59.136 15.532,-56.845C15.532,-56.845 14.573,-54.903 16.122,-54.078C16.122,-54.078 10.637,-46.119 20.375,-41.951C30.112,-37.787 34.076,-33.215 32.954,-25.946C32.954,-25.946 28.813,-25.03 28.604,-21.489C28.396,-17.945 30.178,-14.433 40.431,-14.21C40.431,-14.21 35.894,-4.825 40.943,-2.011C40.943,-2.011 34.226,1.115 31.831,6.007C31.831,6.007 27.874,3.716 22.824,6.737C22.824,6.737 19.391,0.441 12.593,0.413C12.593,0.413 14.997,-3.561 16.801,0.336C16.801,0.336 21.521,-1.49 21.99,-6.594C21.99,-6.594 24.659,-3.769 26.475,-5.129C26.475,-5.129 26.479,-11.69 14.731,-7.268C14.731,-7.268 15.482,-10.968 15.273,-13.259C15.063,-15.549 14.023,-18.882 15.688,-24.403C17.354,-29.923 9.649,-33.464 7.146,-34.506C4.647,-35.546 -6.599,-36.068 -3.319,-47.004C-3.319,-47.004 -5.349,-44.817 -8.37,-44.399C-11.39,-43.982 -12.18,-43.049 -12.565,-41.797C-12.565,-41.797 -19.371,-41.004 -21.574,-43.274C-21.574,-43.274 -24.407,-35.13 -30.604,-36.588C-30.604,-36.588 -27.474,-42.042 -33.335,-40.826C-33.335,-40.826 -33.781,-42.316 -32.219,-43.462C-30.657,-44.607 -29.914,-45.608 -29.914,-45.608C-29.914,-45.608 -33.205,-47.035 -36.565,-46.03C-36.565,-46.03 -35.149,-51.28 -26.705,-50.392C-26.705,-50.392 -28.888,-54.086 -32.688,-54.19C-32.688,-54.19 -29.305,-56.69 -26.076,-53.773C-22.847,-50.857 -22.638,-49.71 -16.91,-53.981C-11.183,-58.252 -12.017,-58.356 -10.037,-64.187C-8.058,-70.022 0.731,-72.158 7.95,-73.433C15.167,-74.706 14.544,-75.749 14.544,-75.749C14.544,-75.749 5.998,-75.769 1.364,-74.562C1.364,-74.562 0.169,-75.228 0.898,-76.895C1.628,-78.56 1.315,-79.184 1.315,-79.184L2.831,-77.647C2.831,-77.647 3.919,-77.623 6.106,-78.56C8.295,-79.498 7.792,-81.815 6.673,-83.817C6.673,-83.817 6.315,-85.851 4.022,-85.436C1.732,-85.017 2.105,-83.887 2.649,-83.412C3.192,-82.935 3.452,-82.205 3.452,-82.205C3.452,-82.205 1.214,-83.456 0.222,-84.602C0.222,-84.602 0.455,-86.852 0,-87.706" style="fill:rgb(3,4,4);fill-rule:nonzero;"/>
                </g>
                <g transform="matrix(1,0,0,1,40.2837,11.9754)">
                    <path d="M0,2.882C0,2.882 -2.069,1.623 -4.507,-1.697C-6.939,-5.022 -11.003,-3.396 -11.003,-3.396C-11.003,-3.396 -5.503,7.904 0,2.882" style="fill-rule:nonzero;"/>
                </g>
                <g transform="matrix(1,0,0,1,7.7271,14.6635)">
                    <path d="M0,3.609C0,3.609 -3.325,4.868 -3.397,-1.259C-3.397,-1.259 -2.215,-0.155 -1.331,0.291C-0.444,0.734 0,1.842 0,3.609" style="fill-rule:nonzero;"/>
                </g>
                <g transform="matrix(0.54741,-0.836864,-0.836864,-0.54741,8.54107,8.7283)">
                    <path d="M-1.522,-0.818C-1.522,-0.818 0.267,-0.88 0.014,1.692L-1.522,4.039C-1.522,4.039 -3.122,1.224 -2.621,0.051C-2.119,-1.118 -1.522,-0.818 -1.522,-0.818" style="fill-rule:nonzero;"/>
                </g>
                <g transform="matrix(1,0,0,1,23.1597,3.5828)">
                    <path d="M0,5.78C0,5.78 1.479,1.325 -1.551,0C-1.551,0 -1.252,1.694 -1.551,2.582C-1.846,3.467 -2.215,4.724 0,5.78" style="fill-rule:nonzero;"/>
                </g>
                <g transform="matrix(1,0,0,1,45.9165,6.7919)">
                    <path d="M0,0.068C0,0.068 0.65,-0.035 1.252,0.417C1.855,0.869 2.543,1.822 2.988,1.985C2.988,1.985 2.909,0.268 4.94,0.794C6.974,1.321 7.849,1.942 9.183,-1.003C9.183,-1.003 6.675,-0.41 4.188,-1.162C1.704,-1.917 -0.047,-1.035 0,0.068" style="fill:white;fill-rule:nonzero;"/>
                </g>
                <g transform="matrix(1,0,0,1,4.7798,56.3692)">
                    <path d="M0,-3.772C0,-3.772 1.516,-0.557 -4.589,0C-4.589,0 -3.58,-1.265 -3.204,-2.183C-2.835,-3.103 -1.764,-3.632 0,-3.772" style="fill-rule:nonzero;"/>
                </g>
                <g transform="matrix(1,0,0,1,26.2114,92.1769)">
                    <path d="M0,-4.131C0,-4.131 -4.615,-3.296 -4.327,0C-4.327,0 -2.98,-1.073 -2.06,-1.239C-1.142,-1.403 0.137,-1.684 0,-4.131" style="fill-rule:nonzero;"/>
                </g>
                <g transform="matrix(0.561648,0.827376,0.827376,-0.561648,10.7681,85.6415)">
                    <path d="M2.925,-0.174C2.925,-0.174 3.593,1.598 3.769,2.651C3.943,3.697 3.475,4.454 2.925,4.828C2.374,5.202 -0.167,4.792 0.486,2.285C1.083,0.007 2.925,-0.174 2.925,-0.174" style="fill-rule:nonzero;"/>
                </g>
                <g transform="matrix(0.176433,0.984313,0.984313,-0.176433,7.12739,76.1774)">
                    <path d="M3.441,0.099C3.441,0.099 2.122,-1.391 0.742,2.231C0.742,2.231 0.182,5.785 3.441,4.298C3.441,4.298 3.786,3.718 3.051,2.124C2.313,0.524 3.441,0.099 3.441,0.099" style="fill-rule:nonzero;"/>
                </g>
                <g transform="matrix(1,0,0,1,12.6226,69.1474)">
                    <path d="M0,1.004C0,1.004 2.066,1.075 3.104,2.113C4.133,3.143 5.318,3.399 6.203,2.477C6.203,2.477 6.795,-2.395 0,1.004" style="fill-rule:nonzero;"/>
                </g>
                <g transform="matrix(1,0,0,1,0.0703,45.812)">
                    <path d="M0,-0.229C0,-0.229 1.252,0.437 1.694,1.174C2.142,1.919 3.173,1.876 3.392,1.174C3.617,0.475 3.023,-2.148 0,-0.229" style="fill-rule:nonzero;"/>
                </g>
                <g transform="matrix(1,0,0,1,8.4897,37.8062)">
                    <path d="M0,2.437C0,2.437 0.731,0 -3.397,0.369C-3.397,0.369 -4.212,2.437 0,2.437" style="fill-rule:nonzero;"/>
                </g>
                <g transform="matrix(1,0,0,1,11.8843,4.4749)">
                    <path d="M0,-4.325C0,-4.325 5.372,-4.638 4.799,0.309C4.799,0.309 1.71,0.313 0,-4.325" style="fill-rule:nonzero;"/>
                </g>
                <g transform="matrix(1,0,0,1,59.9565,89.5672)">
                    <path d="M0,2.217C0,2.217 -3.104,2.882 -2.878,0.218C-2.878,0.218 0.886,-0.665 0,2.217" style="fill-rule:nonzero;"/>
                </g>
                <g transform="matrix(-0.887738,-0.46035,-0.46035,0.887738,58.6585,104.351)">
                    <path d="M-1.222,-3.465C-1.222,-3.465 -2.105,-1.6 -2.051,-1.067C-2.051,-1.067 -2.73,0.407 -1.222,1.025L-0.099,-1.141C-0.099,-1.141 1.057,-3.369 -1.222,-3.465" style="fill-rule:nonzero;"/>
                </g>
                <g transform="matrix(1,0,0,1,75.6831,8.732)">
                    <path d="M0,64.27C0,64.27 3.854,66.249 9.687,63.853C15.518,61.458 17.597,61.649 20.566,61.971C20.566,61.971 17.283,55.641 12.963,54.957C12.963,54.957 4.896,43.128 10.729,36.358C10.729,36.358 7.929,38.974 4.694,36.938C4.694,36.938 10.62,35.951 8.903,29.332C8.903,29.332 8.554,32.937 4.694,30.584C4.694,30.584 9.372,29.903 7.5,24.383C7.5,24.383 6.16,26.934 3.289,27.114C0.417,27.296 3.124,26.672 3.124,26.672C3.124,26.672 -0.104,25.837 7.291,19.277C14.688,12.717 24.047,3.739 15.254,-1.979C15.254,-1.979 19.997,5.53 14.06,11.258C8.125,16.986 -8.126,20.477 -6.831,32.126C-5.086,47.851 6.754,55.833 16.664,60.104C16.664,60.104 9.27,63.749 0,64.27" style="fill-rule:nonzero;"/>
                </g>
                <g transform="matrix(1,0,0,1,71.145,5.6174)">
                    <path d="M0,38.844C0,38.844 -2.021,30.986 0.321,26.61C2.662,22.235 6.413,20.673 11.256,17.549C16.097,14.425 19.95,9.373 17.66,4.688C15.371,0 10.207,6.248 11.227,7.707C12.247,9.165 14.248,11.026 15.434,8.741C15.434,8.741 13.912,13.54 10.267,7.915C6.62,2.29 14.746,1.25 16.097,2.083C17.451,2.915 21.409,6.458 16.826,13.226C12.247,19.997 5.584,22.108 2.565,24.922C-1.618,28.814 0.981,37.992 0,38.844" style="fill-rule:nonzero;"/>
                </g>
                <g transform="matrix(1,0,0,1,82.0376,24.9902)">
                    <path d="M0,-16.664C0,-16.664 -5.938,-11.978 -8.23,-13.645C-10.52,-15.31 -13.229,-18.643 -13.019,-13.124C-12.812,-7.606 -11.334,-7.307 -11.334,-7.307C-11.334,-7.307 -15.103,-2.499 -12.394,1.979C-12.394,1.979 -8.438,-2.813 -2.918,-4.583C2.603,-6.355 3.54,-9.061 4.479,-10.311C4.479,-10.311 3.228,-7.916 -0.626,-11.458L0,-16.664Z" style="fill-rule:nonzero;"/>
                </g>
                <g transform="matrix(1,0,0,1,74.6919,68.4588)">
                    <path d="M0,-6.034C0,-6.034 4.587,-1.667 10.265,-1.667C10.265,-1.667 3.278,-1.092 0.221,0C0.221,0 2.402,-1.884 0,-6.034" style="fill-rule:nonzero;"/>
                </g>
                <g transform="matrix(1,0,0,1,30.6899,16.2484)">
                    <path d="M0,9.964C0,9.964 -13.274,5.949 -8.062,-4.841C-8.062,-4.841 -9.896,-5.176 -11.064,-8.548C-11.064,-8.548 -14.406,-11.702 -17.144,-11.046C-17.144,-11.046 -15.191,-7.726 -16.554,-6.765C-16.554,-6.765 -22.707,-8.457 -19.874,-1.89C-19.874,-1.89 -22.406,0.701 -22.016,2.909C-22.016,2.909 -15.938,3.984 -19.874,13.397C-19.874,13.397 -9.761,13.975 -4.665,21.666C-4.665,21.666 -6.982,13.721 0,9.964" style="fill-rule:nonzero;"/>
                </g>
                <g transform="matrix(1,0,0,1,37.0874,85.5773)">
                    <path d="M0,-27.464C0,-27.464 -1.247,-29.214 -5.804,-26.373C-10.007,-23.752 -7.551,-20.312 -12.629,-22.77C-12.629,-22.77 -0.671,-14.908 -6.769,-10.358C-6.769,-10.358 -14.884,-10.86 -16.923,-14.575C-16.923,-14.575 -15.853,-11.083 -18.417,-10.32C-20.981,-9.557 -27.882,-9.803 -18.59,-4.655C-18.59,-4.655 -22.743,0.768 -16.402,1.75C-16.402,1.75 -13.176,-1.476 -10.283,-1.638C-7.388,-1.803 -6.021,-0.439 -3.292,-0.602C-0.562,-0.765 2.649,-4.577 8.935,-3.026C8.935,-3.026 10.522,-8.136 10.304,-10.375C10.087,-12.614 10.085,-18.895 12.488,-21.078C12.488,-21.078 9.597,-22.935 5.883,-23.699C2.168,-24.462 0.729,-26.37 0,-27.464" style="fill-rule:nonzero;"/>
                </g>
            </g>
            <g id="Text" transform="matrix(0.0498485,0,0,0.240603,21.9213,-117.365)">
                <g transform="matrix(1.05842,0,0,1.13741,-527.604,-365.432)">
                    <g transform="matrix(150,0,0,150,469.198,970.739)">
                        <path d="M0.294,0.011C0.38,0.011 0.435,-0.033 0.474,-0.088L0.474,-0L0.595,-0L0.595,-0.73L0.474,-0.73L0.474,-0.446C0.436,-0.495 0.381,-0.539 0.294,-0.539C0.168,-0.539 0.049,-0.44 0.049,-0.265L0.049,-0.263C0.049,-0.088 0.17,0.011 0.294,0.011ZM0.323,-0.094C0.241,-0.094 0.171,-0.161 0.171,-0.263L0.171,-0.265C0.171,-0.37 0.24,-0.434 0.323,-0.434C0.404,-0.434 0.476,-0.367 0.476,-0.265L0.476,-0.263C0.476,-0.162 0.404,-0.094 0.323,-0.094Z" style="fill-rule:nonzero;"/>
                    </g>
                </g>
                <g transform="matrix(0.997645,0,0,1,96.5743,738.694)">
                    <g transform="matrix(170.611,0,0,170.611,0,0)">
                        <path d="M0.257,0.01C0.367,0.01 0.453,-0.045 0.453,-0.156L0.453,-0.158C0.453,-0.253 0.366,-0.288 0.289,-0.312C0.227,-0.332 0.17,-0.348 0.17,-0.386L0.17,-0.388C0.17,-0.419 0.197,-0.441 0.244,-0.441C0.288,-0.441 0.342,-0.422 0.393,-0.391L0.441,-0.477C0.385,-0.514 0.313,-0.537 0.247,-0.537C0.142,-0.537 0.059,-0.476 0.059,-0.376L0.059,-0.374C0.059,-0.273 0.146,-0.241 0.224,-0.219C0.286,-0.2 0.342,-0.186 0.342,-0.145L0.342,-0.143C0.342,-0.108 0.312,-0.086 0.26,-0.086C0.206,-0.086 0.144,-0.108 0.087,-0.151L0.033,-0.069C0.099,-0.017 0.182,0.01 0.257,0.01Z" style="fill-rule:nonzero;"/>
                    </g>
                    <g transform="matrix(170.611,0,0,170.611,82.7464,0)">
                        <path d="M0.32,0.012C0.423,0.012 0.484,-0.029 0.536,-0.087L0.463,-0.159C0.425,-0.12 0.383,-0.093 0.326,-0.093C0.233,-0.093 0.168,-0.169 0.168,-0.263L0.168,-0.265C0.168,-0.357 0.232,-0.433 0.32,-0.433C0.381,-0.433 0.42,-0.406 0.457,-0.367L0.532,-0.448C0.483,-0.502 0.421,-0.539 0.321,-0.539C0.163,-0.539 0.047,-0.413 0.047,-0.263L0.047,-0.261C0.047,-0.111 0.163,0.012 0.32,0.012Z" style="fill-rule:nonzero;"/>
                    </g>
                    <g transform="matrix(170.611,0,0,170.611,177.606,0)">
                        <path d="M0.327,0.012C0.49,0.012 0.61,-0.113 0.61,-0.263L0.61,-0.265C0.61,-0.416 0.491,-0.539 0.329,-0.539C0.167,-0.539 0.047,-0.414 0.047,-0.263L0.047,-0.261C0.047,-0.111 0.166,0.012 0.327,0.012ZM0.329,-0.093C0.235,-0.093 0.168,-0.171 0.168,-0.263L0.168,-0.265C0.168,-0.357 0.23,-0.433 0.327,-0.433C0.422,-0.433 0.489,-0.356 0.489,-0.263L0.489,-0.261C0.489,-0.17 0.427,-0.093 0.329,-0.093Z" style="fill-rule:nonzero;"/>
                    </g>
                    <g transform="matrix(170.611,0,0,170.611,287.138,0)">
                        <path d="M0.253,0.009C0.298,0.009 0.332,-0.001 0.362,-0.018L0.362,-0.117C0.338,-0.105 0.314,-0.099 0.287,-0.099C0.246,-0.099 0.222,-0.118 0.222,-0.165L0.222,-0.424L0.364,-0.424L0.364,-0.528L0.222,-0.528L0.222,-0.673L0.101,-0.673L0.101,-0.528L0.034,-0.528L0.034,-0.424L0.101,-0.424L0.101,-0.146C0.101,-0.03 0.164,0.009 0.253,0.009Z" style="fill-rule:nonzero;"/>
                    </g>
                    <g transform="matrix(170.611,0,0,170.611,354.53,0)">
                        <path d="M0.253,0.009C0.298,0.009 0.332,-0.001 0.362,-0.018L0.362,-0.117C0.338,-0.105 0.314,-0.099 0.287,-0.099C0.246,-0.099 0.222,-0.118 0.222,-0.165L0.222,-0.424L0.364,-0.424L0.364,-0.528L0.222,-0.528L0.222,-0.673L0.101,-0.673L0.101,-0.528L0.034,-0.528L0.034,-0.424L0.101,-0.424L0.101,-0.146C0.101,-0.03 0.164,0.009 0.253,0.009Z" style="fill-rule:nonzero;"/>
                    </g>
                </g>
                <g transform="matrix(0.999682,0,0,1,492.109,737.344)">
                    <g transform="matrix(170.611,0,0,170.611,48.6241,0)">
                        <path d="M0.32,0.012C0.423,0.012 0.484,-0.029 0.536,-0.087L0.463,-0.159C0.425,-0.12 0.383,-0.093 0.326,-0.093C0.233,-0.093 0.168,-0.169 0.168,-0.263L0.168,-0.265C0.168,-0.357 0.232,-0.433 0.32,-0.433C0.381,-0.433 0.42,-0.406 0.457,-0.367L0.532,-0.448C0.483,-0.502 0.421,-0.539 0.321,-0.539C0.163,-0.539 0.047,-0.413 0.047,-0.263L0.047,-0.261C0.047,-0.111 0.163,0.012 0.32,0.012Z" style="fill-rule:nonzero;"/>
                    </g>
                    <g transform="matrix(170.611,0,0,170.611,143.484,0)">
                        <rect x="0.083" y="-0.73" width="0.121" height="0.73" style="fill-rule:nonzero;"/>
                    </g>
                    <g transform="matrix(170.611,0,0,170.611,189.719,0)">
                        <path d="M0.519,-0L0.519,-0.313C0.519,-0.454 0.443,-0.536 0.287,-0.536C0.201,-0.536 0.144,-0.518 0.086,-0.492L0.119,-0.395C0.167,-0.415 0.211,-0.428 0.27,-0.428C0.354,-0.428 0.4,-0.388 0.4,-0.315L0.4,-0.305C0.359,-0.318 0.318,-0.327 0.254,-0.327C0.131,-0.327 0.04,-0.271 0.04,-0.154L0.04,-0.152C0.04,-0.046 0.128,0.011 0.228,0.011C0.308,0.011 0.363,-0.022 0.399,-0.065L0.399,-0L0.519,-0ZM0.402,-0.191C0.402,-0.125 0.342,-0.08 0.262,-0.08C0.205,-0.08 0.16,-0.108 0.16,-0.158L0.16,-0.16C0.16,-0.211 0.205,-0.242 0.281,-0.242C0.328,-0.242 0.371,-0.233 0.402,-0.221L0.402,-0.191Z" style="fill-rule:nonzero;"/>
                    </g>
                    <g transform="matrix(170.611,0,0,170.611,287.309,0)">
                        <path d="M0.076,-0L0.197,-0L0.197,-0.201C0.197,-0.341 0.271,-0.41 0.377,-0.41L0.384,-0.41L0.384,-0.538C0.291,-0.542 0.23,-0.488 0.197,-0.409L0.197,-0.528L0.076,-0.528L0.076,-0Z" style="fill-rule:nonzero;"/>
                    </g>
                    <g transform="matrix(170.611,0,0,170.611,355.212,0)">
                        <path d="M0.076,-0L0.197,-0L0.197,-0.151L0.271,-0.228L0.43,-0L0.57,-0L0.353,-0.313L0.563,-0.528L0.416,-0.528L0.197,-0.294L0.197,-0.73L0.076,-0.73L0.076,-0Z" style="fill-rule:nonzero;"/>
                    </g>
                </g>
                <g transform="matrix(1,0,0,1,-477.688,-277.815)">
                    <g transform="matrix(170.417,0,0,170.417,1445.84,1015.02)">
                        <path d="M0.308,0.012C0.409,0.012 0.474,-0.047 0.518,-0.114L0.518,-0L0.567,-0L0.567,-0.73L0.518,-0.73L0.518,-0.4C0.476,-0.464 0.41,-0.522 0.308,-0.522C0.185,-0.522 0.06,-0.421 0.06,-0.255L0.06,-0.253C0.06,-0.087 0.185,0.012 0.308,0.012ZM0.313,-0.035C0.206,-0.035 0.113,-0.121 0.113,-0.255L0.113,-0.257C0.113,-0.394 0.202,-0.475 0.313,-0.475C0.419,-0.475 0.521,-0.387 0.521,-0.256L0.521,-0.254C0.521,-0.124 0.419,-0.035 0.313,-0.035Z" style="fill-rule:nonzero;"/>
                    </g>
                    <g transform="matrix(170.417,0,0,170.417,1555.76,1015.02)">
                        <path d="M0.308,0.012C0.406,0.012 0.467,-0.028 0.519,-0.084L0.485,-0.114C0.443,-0.069 0.389,-0.034 0.31,-0.034C0.21,-0.034 0.119,-0.108 0.11,-0.235L0.533,-0.235C0.534,-0.243 0.534,-0.246 0.534,-0.255C0.534,-0.406 0.443,-0.522 0.3,-0.522C0.162,-0.522 0.058,-0.404 0.058,-0.256L0.058,-0.254C0.058,-0.095 0.174,0.012 0.308,0.012ZM0.11,-0.279C0.119,-0.392 0.197,-0.477 0.298,-0.477C0.415,-0.477 0.474,-0.382 0.481,-0.279L0.11,-0.279Z" style="fill-rule:nonzero;"/>
                    </g>
                    <g transform="matrix(170.417,0,0,170.417,1652.73,1015.02)">
                        <path d="M0.258,0.01C0.356,0.01 0.434,-0.048 0.434,-0.139L0.434,-0.141C0.434,-0.231 0.348,-0.261 0.266,-0.284C0.193,-0.305 0.124,-0.326 0.124,-0.383L0.124,-0.385C0.124,-0.436 0.17,-0.474 0.24,-0.474C0.294,-0.474 0.35,-0.454 0.397,-0.423L0.423,-0.464C0.372,-0.498 0.303,-0.52 0.242,-0.52C0.143,-0.52 0.074,-0.461 0.074,-0.379L0.074,-0.377C0.074,-0.286 0.166,-0.261 0.249,-0.237C0.32,-0.217 0.384,-0.195 0.384,-0.135L0.384,-0.133C0.384,-0.074 0.33,-0.036 0.261,-0.036C0.196,-0.036 0.134,-0.06 0.078,-0.103L0.049,-0.064C0.103,-0.02 0.184,0.01 0.258,0.01Z" style="fill-rule:nonzero;"/>
                    </g>
                    <g transform="matrix(170.417,0,0,170.417,1734.87,1015.02)">
                        <path d="M0.094,-0.643L0.155,-0.643L0.155,-0.71L0.094,-0.71L0.094,-0.643ZM0.1,-0L0.149,-0L0.149,-0.51L0.1,-0.51L0.1,-0Z" style="fill-rule:nonzero;"/>
                    </g>
                    <g transform="matrix(170.417,0,0,170.417,1774.75,1015.02)">
                        <path d="M0.317,0.162C0.392,0.162 0.458,0.138 0.502,0.094C0.543,0.053 0.567,-0.005 0.567,-0.079L0.567,-0.51L0.518,-0.51L0.518,-0.408C0.476,-0.468 0.407,-0.522 0.305,-0.522C0.182,-0.522 0.06,-0.427 0.06,-0.28L0.06,-0.278C0.06,-0.132 0.182,-0.038 0.305,-0.038C0.406,-0.038 0.474,-0.093 0.518,-0.156L0.518,-0.082C0.518,0.049 0.435,0.116 0.318,0.116C0.243,0.116 0.173,0.091 0.112,0.044L0.083,0.084C0.153,0.136 0.232,0.162 0.317,0.162ZM0.31,-0.085C0.205,-0.085 0.113,-0.165 0.113,-0.28L0.113,-0.282C0.113,-0.401 0.203,-0.475 0.31,-0.475C0.416,-0.475 0.521,-0.399 0.521,-0.281L0.521,-0.279C0.521,-0.163 0.416,-0.085 0.31,-0.085Z" style="fill-rule:nonzero;"/>
                    </g>
                    <g transform="matrix(170.417,0,0,170.417,1884.67,1015.02)">
                        <path d="M0.093,-0L0.142,-0L0.142,-0.295C0.142,-0.401 0.219,-0.477 0.319,-0.477C0.422,-0.477 0.481,-0.408 0.481,-0.303L0.481,-0L0.53,-0L0.53,-0.312C0.53,-0.434 0.455,-0.522 0.326,-0.522C0.233,-0.522 0.176,-0.475 0.142,-0.415L0.142,-0.51L0.093,-0.51L0.093,-0Z" style="fill-rule:nonzero;"/>
                    </g>
                </g>
            </g>
        </g>
    </g>
</svg>
